<?xml version="1.0" standalone="no"?>
<!DOCTYPE svg PUBLIC "-//W3C//DTD SVG 1.1//EN" "http://www.w3.org/Graphics/SVG/1.1/DTD/svg11.dtd" >
<svg xmlns="http://www.w3.org/2000/svg">
<metadata>
Created by FontPrep 20130207 at Mon Apr 20 05:06:54 2015
 By Nico Watine
Copyright (c) 2010 by Jonathan Hill. All rights reserved.
</metadata>
<defs>
<font id="c9ed98ad6151f24c78c3584113b0c935" horiz-adv-x='1024' >
  <font-face 
    font-family="Knul-Bold"
    font-weight="700"
    font-stretch="normal"
    units-per-em="2048"
    panose-1="2 0 0 0 0 0 0 0 0 0"
    ascent="1536"
    descent="-512"
    x-height="1040"
    cap-height="1434"
    bbox="92 -526 1782 1954"
    underline-thickness="102"
    underline-position="-102"
    unicode-range="U+0020-FB02"
  />
<missing-glyph horiz-adv-x="614" 
 />
    <glyph glyph-name=".notdef" horiz-adv-x="614" 
 />
    <glyph glyph-name=".null" horiz-adv-x="0" 
 />
    <glyph glyph-name="nonmarkingreturn" horiz-adv-x="681" 
 />
    <glyph glyph-name="space" unicode=" " horiz-adv-x="614" 
 />
    <glyph glyph-name="exclam" unicode="!" horiz-adv-x="385" 
d="M102 260h181v-260h-181v260zM102 1403h181v-1038h-181v1038z" />
    <glyph glyph-name="quotedbl" unicode="&#x22;" horiz-adv-x="641" 
d="M539 926h-179v477h179v-477zM281 926h-179v477h179v-477z" />
    <glyph glyph-name="numbersign" unicode="#" horiz-adv-x="1230" 
d="M530 811l-65 -289h225q10 48 32 142t32 147h-224zM1128 993v-182h-188q-30 -147 -68 -289h256v-180h-288l-76 -342h-180l67 342h-223l-74 -342h-178l68 342h-142v180h181q6 39 61 289h-242v182h277q10 51 92 396h180l-86 -396h226l90 396h180l-86 -396h153z" />
    <glyph glyph-name="dollar" unicode="$" horiz-adv-x="1089" 
d="M274 1020q0 -92 44 -134t143 -65v385q-187 -20 -187 -186zM813 430q0 76 -41 115t-133 63v-430q174 35 174 252zM639 -90h-178v90h-359v176h359v463q-232 49 -295 136t-64 245q0 332 359 364v95h178v-90h319v-179h-319v-419q188 -39 268 -114t80 -263q0 -373 -348 -410
v-94z" />
    <glyph glyph-name="percent" unicode="%" horiz-adv-x="1439" 
d="M326 0h-224l1010 1389h225zM911 304q0 -132 73 -132t73 132t-73 132t-73 -132zM983 608q129 0 191 -70q61 -71 61 -231q-1 -159 -63 -233t-189 -74t-187 74t-60 234t58 230q60 70 189 70zM473 1219q-41 1 -57 -29t-17 -100q1 -70 17 -104t57 -34q74 0 74 134t-74 133z
M472 1393q128 0 188 -72q60 -73 60 -231t-60 -233q-62 -75 -188 -75t-188 75t-62 234t60 231q62 72 190 71z" />
    <glyph glyph-name="ampersand" unicode="&#x26;" horiz-adv-x="1284" 
d="M657 1043q0 75 -41 121t-102 46h-45q-57 0 -98 -46t-41 -106t51 -122q0 -2 25 -31l51 -53l145 84q55 31 55 107zM713 176q51 0 78 12l-375 433q-4 -4 -40 -25t-67 -78t-31 -140t58 -142q57 -59 141 -60h236zM911 451h174q0 -176 -53 -271l150 -180h-213l-58 55
q-94 -55 -198 -55h-236q-164 0 -269 109t-106 282q0 123 54 220t149 145l-74 88q-77 92 -77 222t91 226t224 97h45q139 1 228 -95t89 -241q0 -188 -139 -273l-114 -69q57 -70 196 -226l129 -149q8 43 8 115z" />
    <glyph glyph-name="quotesingle" unicode="'" horiz-adv-x="382" 
d="M281 924h-179v477h179v-477z" />
    <glyph glyph-name="parenleft" unicode="(" horiz-adv-x="557" 
d="M283 604q0 -121 43 -311t86 -320l43 -129l-152 -63q-73 193 -136 449q-65 255 -65 376t49 321q48 200 95 337l49 137l160 -53q-172 -506 -172 -744z" />
    <glyph glyph-name="parenright" unicode=")" horiz-adv-x="557" 
d="M270 604q0 120 -42 306q-42 185 -85 311l-41 127l158 53q64 -158 129 -416t65 -379q0 -120 -50 -326q-52 -206 -101 -354l-51 -145l-150 63q69 212 119 426q49 214 49 334z" />
    <glyph glyph-name="asterisk" unicode="*" horiz-adv-x="917" 
d="M371 1374h180v-225q162 56 213 76l51 -164l-209 -80l129 -178l-141 -107l-131 181l-131 -181l-144 107l131 176l-217 72l62 170l207 -70v223z" />
    <glyph glyph-name="plus" unicode="+" horiz-adv-x="1206" 
d="M512 1012h178v-408h414v-178h-414v-410h-178v410h-410v178h410v408z" />
    <glyph glyph-name="comma" unicode="," horiz-adv-x="460" 
d="M176 285h182v-222q0 -61 -55 -114t-137 -78l-64 154q74 27 74 38v222z" />
    <glyph glyph-name="hyphen" unicode="-" horiz-adv-x="897" 
d="M795 621v-177h-693v177h693z" />
    <glyph glyph-name="period" unicode="." horiz-adv-x="391" 
d="M289 0h-187v260h187v-260z" />
    <glyph glyph-name="slash" unicode="/" horiz-adv-x="1021" 
d="M297 0h-195l629 1403h189z" />
    <glyph glyph-name="zero" unicode="0" horiz-adv-x="1171" 
d="M586 1157q-305 0 -305 -338v-344q-1 -151 81 -233t224 -82t224 82q81 82 81 233v344q1 166 -77 252t-228 86zM588 1333q231 0 356 -129t125 -385v-344q0 -244 -128 -369q-128 -124 -354 -124t-356 126q-129 126 -129 367v344q0 260 127 387q128 127 359 127z" />
    <glyph glyph-name="one" unicode="1" horiz-adv-x="780" 
d="M678 1343v-1343h-180v1100l-287 -197l-109 150l441 290h135z" />
    <glyph glyph-name="two" unicode="2" horiz-adv-x="1093" 
d="M102 0v141l492 467q170 162 170 303v56q0 90 -72 140t-172 50h-407v176h409q184 0 299 -97t115 -269v-54q0 -135 -55 -232t-158 -194l-330 -311h598v-176h-889z" />
    <glyph glyph-name="three" unicode="3" horiz-adv-x="1042" 
d="M252 596v176h344q72 0 120 51t48 134t-52 141t-128 59h-482v176h482q156 0 256 -106q100 -105 100 -273t-119 -272q119 -113 119 -293q0 -181 -101 -285t-255 -104h-482v176h482q78 0 129 55t51 147t-51 156q-51 62 -129 62h-332z" />
    <glyph glyph-name="four" unicode="4" horiz-adv-x="1206" 
d="M723 432v330h178v-330h203v-178h-203v-254h-178v254h-621v133l396 971l168 -66l-355 -860h412z" />
    <glyph glyph-name="five" unicode="5" horiz-adv-x="1056" 
d="M102 0v178h404q118 0 194 46t76 149v129q0 86 -68 131q-69 45 -173 45h-433v639h813v-176h-632v-291h254q186 0 302 -88t115 -260v-129q0 -190 -121 -282q-122 -91 -325 -91h-406z" />
    <glyph glyph-name="six" unicode="6" horiz-adv-x="1105" 
d="M565 682h-282v-205q-1 -165 65 -233t204 -68t204 62t65 170v77q0 197 -256 197zM963 1333v-176h-367q-301 0 -313 -301h286q434 0 435 -371v-77q0 -186 -114 -297t-339 -111t-337 112t-112 361v369q0 248 127 370t367 121h367z" />
    <glyph glyph-name="seven" unicode="7" horiz-adv-x="1081" 
d="M102 1157v176h877v-131l-533 -1202h-188l510 1157h-666z" />
    <glyph glyph-name="eight" unicode="8" horiz-adv-x="1163" 
d="M717 772q72 0 121 51t49 134t-53 141t-129 59h-246q-76 0 -129 -57q-54 -56 -54 -140t50 -134t123 -54h268zM459 176h246q78 0 130 55t52 147t-52 156q-52 62 -130 62h-246q-78 0 -130 -62q-53 -62 -53 -154t52 -148t131 -56zM705 0h-246q-154 0 -255 104
q-102 104 -102 280t117 296q-117 100 -117 270t100 276t257 107h246q156 0 256 -106q100 -105 100 -273t-119 -272q119 -113 119 -293q0 -181 -101 -285t-255 -104z" />
    <glyph glyph-name="nine" unicode="9" horiz-adv-x="1105" 
d="M541 653h280v205q0 164 -65 232q-66 68 -204 68t-204 -62q-66 -61 -65 -170v-80q0 -193 258 -193zM143 0v176h367q299 0 311 301h-284q-434 0 -435 369v80q0 188 114 298t339 110t337 -114q112 -112 112 -358v-373q0 -489 -494 -489h-367z" />
    <glyph glyph-name="colon" unicode=":" horiz-adv-x="391" 
d="M289 627h-187v260h187v-260zM289 0h-187v260h187v-260z" />
    <glyph glyph-name="semicolon" unicode=";" horiz-adv-x="462" 
d="M176 285h182v-222q0 -61 -55 -114t-137 -78l-64 154q74 27 74 38v222zM360 627h-186v260h186v-260z" />
    <glyph glyph-name="less" unicode="&#x3c;" horiz-adv-x="956" 
d="M102 561v129l752 486v-201l-541 -348l541 -353v-200z" />
    <glyph glyph-name="equal" unicode="=" horiz-adv-x="1206" 
d="M1104 494v-177h-1002v177h1002zM1104 801v-178h-1002v178h1002z" />
    <glyph glyph-name="greater" unicode="&#x3e;" horiz-adv-x="956" 
d="M854 690v-129l-752 -487v200l543 353l-543 348v201z" />
    <glyph glyph-name="question" unicode="?" horiz-adv-x="954" 
d="M512 0h-186v260h186v-260zM508 365h-178v131q0 78 31 130q32 52 96 111l116 107q96 90 97 184q0 182 -224 182h-344v179h344q193 -1 299 -93q107 -92 107 -266t-158 -313l-114 -105q-72 -59 -72 -116v-131z" />
    <glyph glyph-name="at" unicode="@" horiz-adv-x="1171" 
d="M618 526q37 0 48 41v49h-140q-20 0 -32 -13t-13 -32q0 -45 45 -45h92zM618 352h-92q-88 0 -154 64t-65 155q0 92 66 157t153 65h140v24q0 51 -35 51h-260v176h260q90 0 150 -64t61 -161v-225q49 82 49 236t-78 241q-78 86 -227 86q-305 0 -305 -338v-344q-1 -151 81 -233
t224 -82q84 0 178 33l61 -162q-133 -49 -239 -49q-225 0 -355 126q-129 126 -129 367v344q0 260 127 387t359 127t356 -130q125 -130 125 -390q0 -158 -82 -295t-194 -164h-127q-17 -2 -48 -2z" />
    <glyph glyph-name="A" unicode="A" horiz-adv-x="1376" 
d="M686 1108l-186 -522h374zM440 403l-145 -403h-193l506 1434h158l508 -1434h-195l-141 403h-498z" />
    <glyph glyph-name="B" unicode="B" horiz-adv-x="1212" 
d="M285 829h379q88 -1 150 61t62 149t-62 151t-150 63h-379v-424zM696 649h-411v-471h411q96 0 165 69t69 165t-69 166t-165 71zM1110 412q0 -174 -120 -293t-294 -119h-594v1434h562q164 0 280 -116t115 -278q0 -162 -127 -288q178 -125 178 -340z" />
    <glyph glyph-name="C" unicode="C" 
d="M995 537h185q0 -245 -130 -391t-364 -146h-90q-231 0 -363 135q-131 135 -131 361v430q0 508 494 508h90q494 0 494 -566h-185q0 385 -309 385h-90q-305 0 -305 -327v-430q0 -138 80 -228t225 -90h90q147 0 228 100t81 259z" />
    <glyph glyph-name="D" unicode="D" horiz-adv-x="1200" 
d="M102 0v1434h502q494 0 494 -508v-430q0 -228 -130 -362t-364 -134h-502zM913 496v430q0 328 -309 327h-319v-1075h319q145 0 227 90t82 228z" />
    <glyph glyph-name="E" unicode="E" horiz-adv-x="1089" 
d="M877 836v-185h-590v-469h700v-182h-885v1434h885v-183h-700v-415h590z" />
    <glyph glyph-name="F" unicode="F" horiz-adv-x="1089" 
d="M287 0h-185v1434h885v-183h-700v-415h590v-185h-590v-651z" />
    <glyph glyph-name="G" unicode="G" 
d="M686 0h-90q-231 0 -363 135q-131 135 -131 361v430q0 508 494 508h90q494 0 494 -566h-185q0 385 -309 385h-90q-305 0 -305 -327v-430q0 -138 80 -228t225 -90h90q309 0 309 330v82h-282v180h467v-272q0 -498 -494 -498z" />
    <glyph glyph-name="H" unicode="H" horiz-adv-x="1245" 
d="M1143 0h-187v629h-669v-629h-185v1434h185v-625h669v625h187v-1434z" />
    <glyph glyph-name="I" unicode="I" horiz-adv-x="389" 
d="M287 0h-185v1434h185v-1434z" />
    <glyph glyph-name="J" unicode="J" horiz-adv-x="647" 
d="M197 0h-95v178h91q111 0 139 36t26 196v1024h185v-879l2 -162q-1 -135 -19 -215t-67 -119t-105 -49t-157 -10z" />
    <glyph glyph-name="K" unicode="K" horiz-adv-x="1218" 
d="M285 616v-616h-183v1434h183v-633h94l475 633h231l-538 -723l569 -711h-237l-500 616h-94z" />
    <glyph glyph-name="L" unicode="L" horiz-adv-x="1032" 
d="M930 182v-182h-828v1434h187v-1252h641z" />
    <glyph glyph-name="M" unicode="M" horiz-adv-x="1449" 
d="M1348 0h-183v1022l-366 -619h-148l-366 623v-1026h-183v1434h160l463 -787l465 787h158v-1434z" />
    <glyph glyph-name="N" unicode="N" horiz-adv-x="1261" 
d="M1159 0h-153l-719 1063v-1063h-185v1434h156l719 -1063v1063h182v-1434z" />
    <glyph glyph-name="O" unicode="O" 
d="M291 926v-430q0 -138 80 -228t225 -90h90q145 0 227 89t82 229v430q0 328 -309 327h-90q-305 1 -305 -327zM596 1434h90q494 0 494 -508v-430q0 -228 -130 -362t-364 -134h-90q-231 0 -363 135q-131 135 -131 361v430q0 508 494 508z" />
    <glyph glyph-name="P" unicode="P" horiz-adv-x="1159" 
d="M285 829h379q88 1 150 63t62 149t-62 149t-150 63h-379v-424zM285 0h-183v1434h562q164 0 278 -116t115 -279q0 -163 -115 -277t-278 -113h-379v-649z" />
    <glyph glyph-name="Q" unicode="Q" horiz-adv-x="1304" 
d="M291 926v-430q0 -138 80 -228t225 -90h90q145 0 227 89t82 229v430q0 328 -309 327h-90q-305 1 -305 -327zM686 0h-90q-231 0 -363 135q-131 135 -131 361v430q0 508 494 508h90q494 0 494 -508v-430q0 -270 -185 -408l207 -205l-131 -135l-262 262q-57 -10 -123 -10z
" />
    <glyph glyph-name="R" unicode="R" horiz-adv-x="1202" 
d="M285 829h379q88 1 150 63t62 149t-62 149t-150 63h-379v-424zM285 649v-649h-183v1434h562q164 0 280 -116t115 -262q0 -146 -93 -254q-93 -110 -223 -147l357 -655h-211l-348 649h-256z" />
    <glyph glyph-name="S" unicode="S" horiz-adv-x="1120" 
d="M102 0v178h463q137 0 205 62t68 202q0 96 -65 136t-185 65q-120 23 -171 37q-50 14 -119 45q-70 31 -106 70q-90 97 -90 258q0 381 461 381h422v-181h-422q-283 0 -282 -200q1 -113 71 -155t266 -76t297 -114q102 -80 103 -266q0 -234 -113 -338t-340 -104h-463z" />
    <glyph glyph-name="T" unicode="T" horiz-adv-x="1261" 
d="M723 0h-178v1253h-443v181h1057v-181h-436v-1253z" />
    <glyph glyph-name="U" unicode="U" horiz-adv-x="1210" 
d="M928 1434h180v-1006q0 -200 -102 -320t-279 -120h-229q-168 0 -282 116t-114 324v1006h179v-1006q0 -122 62 -190t153 -68h235q94 0 146 71q51 71 51 187v1006z" />
    <glyph glyph-name="V" unicode="V" horiz-adv-x="1333" 
d="M743 0h-151l-490 1434h191l377 -1100l372 1100h189z" />
    <glyph glyph-name="W" unicode="W" horiz-adv-x="1642" 
d="M1147 356l205 1078h188l-276 -1434h-150l-293 608l-291 -608h-149l-279 1434h191l205 -1076l250 521h147z" />
    <glyph glyph-name="X" unicode="X" horiz-adv-x="1357" 
d="M1255 0h-215l-356 563l-365 -563h-217l467 713l-463 721h213l363 -570l358 570h215l-458 -723z" />
    <glyph glyph-name="Y" unicode="Y" horiz-adv-x="1339" 
d="M766 0h-182v645l-482 789h220l354 -592q283 494 344 592h217l-471 -791v-643z" />
    <glyph glyph-name="Z" unicode="Z" horiz-adv-x="1146" 
d="M102 1253v181h942v-134l-708 -1120h708v-180h-942v135l705 1118h-705z" />
    <glyph glyph-name="bracketleft" unicode="[" horiz-adv-x="651" 
d="M549 -51v-172h-447v1702h447v-174h-268v-1356h268z" />
    <glyph glyph-name="backslash" unicode="\" horiz-adv-x="1021" 
d="M920 0h-191l-627 1403h193z" />
    <glyph glyph-name="bracketright" unicode="]" horiz-adv-x="651" 
d="M102 -223v172h271v1356h-271v174h447v-1702h-447z" />
    <glyph glyph-name="asciicircum" unicode="^" horiz-adv-x="1312" 
d="M590 1403h131l489 -752h-204l-351 543l-350 -543h-203z" />
    <glyph glyph-name="underscore" unicode="_" horiz-adv-x="1093" 
d="M991 53v-178h-889v178h889z" />
    <glyph glyph-name="grave" unicode="`" horiz-adv-x="673" 
d="M502 1012l-400 186l72 158l397 -187z" />
    <glyph glyph-name="a" unicode="a" horiz-adv-x="985" 
d="M705 446h-291q-55 0 -96 -40q-40 -40 -40 -96t40 -95q38 -39 96 -39h155q53 0 93 37q39 37 43 92v141zM569 0h-155q-133 0 -223 89q-89 89 -89 219t90 221t222 92h291v100q0 61 -32 104t-85 43h-430v174h430q129 0 212 -90t83 -225v-727h-178v29q-64 -29 -136 -29z" />
    <glyph glyph-name="b" unicode="b" horiz-adv-x="995" 
d="M281 686v-379q2 -55 42 -92t93 -37h135q70 0 117 62t47 159v287q0 80 -46 131t-114 51h-117q-66 0 -112 -51t-45 -131zM438 1042h117q141 0 239 -97t99 -259v-293q0 -130 -77 -254q-38 -61 -108 -100t-157 -39h-135q-68 0 -135 29v-29h-179v1389h179v-385q73 38 157 38z
" />
    <glyph glyph-name="c" unicode="c" horiz-adv-x="911" 
d="M809 172v-172h-299q-209 0 -308 106t-100 330v180q0 426 408 426h299v-174h-299q-233 0 -234 -252v-180q0 -264 234 -264h299z" />
    <glyph glyph-name="d" unicode="d" horiz-adv-x="995" 
d="M715 686q0 80 -46 131t-114 51h-117q-66 0 -112 -51t-45 -131v-287q0 -98 46 -159t115 -62h138q51 0 91 37t44 92v379zM438 1042h117q86 0 160 -38v385h178v-1389h-178v29q-68 -29 -135 -29h-138q-118 0 -198 69q-142 122 -142 324v293q0 162 98 259t238 97z" />
    <glyph glyph-name="e" unicode="e" horiz-adv-x="1003" 
d="M281 604h440v31q0 233 -225 233q-102 0 -158 -63t-57 -170v-31zM868 172v-172h-376q-221 0 -306 115q-84 115 -84 370v150q0 188 112 298q112 109 294 109t288 -104q105 -104 105 -303v-203h-620q4 -133 52 -196t159 -64h376z" />
    <glyph glyph-name="f" unicode="f" horiz-adv-x="802" 
d="M700 1024v-172h-292v-852h-179v852h-127v172h134q25 180 141 265q117 85 323 104v-181q-231 -16 -276 -188h276z" />
    <glyph glyph-name="g" unicode="g" horiz-adv-x="995" 
d="M715 342v389q-4 55 -44 93t-91 38h-138q-70 0 -116 -62t-45 -161v-287q0 -78 46 -129t111 -51h117q63 0 112 49q48 49 48 121zM555 0h-117q-139 0 -237 95t-99 257v291q0 105 38 183q38 77 74 120q87 98 228 96h138q74 0 135 -30v30h178v-999q0 -251 -85 -363t-304 -112
h-377v172h375q117 0 163 71t50 224q-80 -35 -160 -35z" />
    <glyph glyph-name="h" unicode="h" horiz-adv-x="995" 
d="M893 0h-178v686q0 80 -46 131t-114 51h-117q-66 0 -112 -51t-45 -131v-686h-179v1389h179v-385q74 39 157 38h117q141 0 239 -97t99 -259v-686z" />
    <glyph glyph-name="i" unicode="i" horiz-adv-x="385" 
d="M283 1174h-181v215h181v-215zM283 0h-181v1024h181v-1024z" />
    <glyph glyph-name="j" unicode="j" horiz-adv-x="602" 
d="M500 1174h-174v215h174v-215zM326 152v872h174v-874q0 -182 -94 -318l-154 -225l-150 100l156 223q68 102 68 222z" />
    <glyph glyph-name="k" unicode="k" horiz-adv-x="1050" 
d="M283 643h96l313 381h240l-397 -467q5 -6 27 -36t123 -167t263 -354h-225l-340 467h-100v-467h-181v1389h181v-746z" />
    <glyph glyph-name="l" unicode="l" horiz-adv-x="385" 
d="M283 0h-181v1434h181v-1434z" />
    <glyph glyph-name="m" unicode="m" horiz-adv-x="1521" 
d="M434 1042h80q141 0 244 -106q90 102 239 106h84q139 0 239 -97t99 -259v-686h-178v686q0 80 -46 131t-114 51h-75q-62 0 -110 -49t-48 -123v-696h-176v686q0 80 -46 131t-112 51h-80q-66 0 -110 -51t-45 -131v-686h-177v1042h177v-38q73 38 155 38z" />
    <glyph glyph-name="n" unicode="n" horiz-adv-x="999" 
d="M897 0h-178v686q0 80 -47 131t-113 51h-119q-66 0 -112 -48t-47 -124v-696h-179v1042h179v-38q74 39 159 38h119q141 0 239 -97t99 -259v-686z" />
    <glyph glyph-name="o" unicode="o" horiz-adv-x="1028" 
d="M457 162h116q74 0 126 58t53 140v287q0 88 -52 154t-127 65h-116q-72 0 -124 -66t-52 -153v-287q0 -84 51 -141t125 -57zM573 -12h-116q-154 0 -254 103t-101 269v287q0 170 100 282t255 111h116q154 0 253 -112t100 -281v-287q0 -166 -100 -269t-253 -103z" />
    <glyph glyph-name="p" unicode="p" horiz-adv-x="995" 
d="M416 862q-53 0 -93 -38t-42 -93v-379q0 -78 46 -129t111 -51h117q68 0 114 51t46 129v287q0 99 -47 161t-117 62h-135zM555 0h-117q-84 0 -157 35v-383h-179v1390h179v-30q61 31 135 30h135q88 0 158 -40q69 -40 107 -102q74 -123 77 -257v-291q-1 -162 -99 -257
t-239 -95z" />
    <glyph glyph-name="q" unicode="q" horiz-adv-x="995" 
d="M715 352v379q-4 55 -44 93t-91 38h-138q-70 0 -116 -62t-45 -161v-287q0 -78 46 -129t111 -51h117q68 0 114 51t46 129zM555 0h-117q-139 0 -237 95t-99 257v291q0 105 38 183q38 77 74 120q87 98 228 96h138q74 0 135 -30v30h178v-1390h-178v383q-74 -35 -160 -35z" />
    <glyph glyph-name="r" unicode="r" horiz-adv-x="759" 
d="M279 0h-177v1042h177v-49q92 49 231 49h147v-174h-147q-231 0 -231 -237v-631z" />
    <glyph glyph-name="s" unicode="s" horiz-adv-x="980" 
d="M844 1040v-174h-381q-180 0 -180 -125q0 -53 47 -79t151 -41l41 -7q25 -4 29 -4q328 -43 328 -297q-1 -169 -103 -241t-291 -72h-356v172h356q211 0 211 139q0 47 -47 80t-92 39t-70 10l-43 6q-342 47 -342 293q0 152 102 227t259 74h381z" />
    <glyph glyph-name="t" unicode="t" horiz-adv-x="837" 
d="M252 1233h178v-207h305v-178h-305v-496q0 -88 33 -131t112 -43h160v-178h-160q-171 0 -247 88t-76 264v496h-150v178h150v207z" />
    <glyph glyph-name="u" unicode="u" horiz-adv-x="999" 
d="M102 1042h179v-690q0 -78 46 -129t113 -51h119q66 0 113 47t47 123v700h178v-1042h-178v35q-74 -35 -160 -35h-119q-141 0 -239 95t-99 257v690z" />
    <glyph glyph-name="v" unicode="v" horiz-adv-x="1097" 
d="M618 0h-139l-383 1042h183l270 -731l270 731h185z" />
    <glyph glyph-name="w" unicode="w" horiz-adv-x="1624" 
d="M1188 0h-160l-217 686l-215 -686h-160l-342 1042h195l225 -686l219 686h160l215 -686l223 686h197z" />
    <glyph glyph-name="x" unicode="x" horiz-adv-x="1110" 
d="M301 0h-209l352 520l-352 522h209l248 -368l250 368h209l-355 -522l355 -520h-209l-250 367z" />
    <glyph glyph-name="y" unicode="y" horiz-adv-x="1097" 
d="M465 -420h-182l174 477l-361 985h183l270 -731l270 731h185z" />
    <glyph glyph-name="z" unicode="z" horiz-adv-x="931" 
d="M102 0v133l492 735h-492v174h727v-133l-495 -735h495v-174h-727z" />
    <glyph glyph-name="braceleft" unicode="{" horiz-adv-x="878" 
d="M776 -51v-172h-444v579q0 82 -65 133t-165 52v174q98 0 164 52t66 132v580h444v-174h-268v-406q0 -172 -117 -272q117 -111 117 -271v-407h268z" />
    <glyph glyph-name="bar" unicode="|" horiz-adv-x="385" 
d="M283 -109h-181v1512h181v-1512z" />
    <glyph glyph-name="braceright" unicode="}" horiz-adv-x="878" 
d="M102 -223v172h269v407q0 166 116 273q-117 102 -116 270v406h-269v174h447v-580q-1 -80 65 -132t162 -52v-174q-98 1 -163 -51t-64 -134v-579h-447z" />
    <glyph glyph-name="asciitilde" unicode="~" horiz-adv-x="1210" 
d="M1108 616q0 -150 -93 -258t-218 -108q-84 0 -156 43t-114 111t-105 68q-64 0 -104 -57q-40 -56 -39 -134h-177q2 154 92 260t218 106q84 0 156 -42t114 -111q38 -68 104 -68t105 55t41 135h176z" />
    <glyph glyph-name="uni00A0" unicode="&#xa0;" horiz-adv-x="614" 
 />
    <glyph glyph-name="exclamdown" unicode="&#xa1;" horiz-adv-x="385" 
d="M283 825h-181v260h181v-260zM283 -305h-181v1024h181v-1024z" />
    <glyph glyph-name="cent" unicode="&#xa2;" horiz-adv-x="911" 
d="M276 436q0 -209 142 -254v672q-141 -39 -142 -238v-180zM598 -150h-180v154q-315 41 -316 432v180q0 188 77 292t239 126v156h180v-148h211v-174h-211v-696h211v-172h-211v-150z" />
    <glyph glyph-name="sterling" unicode="&#xa3;" horiz-adv-x="1028" 
d="M926 172v-172h-824v172h170v510h-129v170h129v117q0 223 72 303t234 80h276v-172h-276q-68 0 -99 -44t-30 -167v-117h331v-170h-331v-510h477z" />
    <glyph glyph-name="currency" unicode="&#xa4;" horiz-adv-x="1036" 
d="M715 713v116q0 47 -41 82t-101 35h-116q-61 0 -109 -35t-49 -82v-116q0 -49 47 -83t111 -34h116q59 0 101 34q41 34 41 83zM887 829v-116q0 -84 -39 -148l86 -84l-125 -127l-98 97q-72 -29 -138 -29h-116q-72 0 -138 24l-90 -90l-127 127l74 70q-51 78 -51 160v116
q0 90 53 160l-76 70l127 127l90 -90q59 23 138 22h116q74 0 138 -26l98 96l125 -127l-86 -86q39 -83 39 -146z" />
    <glyph glyph-name="yen" unicode="&#xa5;" horiz-adv-x="1302" 
d="M743 0h-178v309h-377v176h377v97h-377v176h293l-379 631h213l340 -570l334 570h211l-377 -631h289v-176h-369v-97h369v-176h-369v-309z" />
    <glyph glyph-name="brokenbar" unicode="&#xa6;" horiz-adv-x="382" 
d="M281 -111h-179v764h179v-764zM281 717h-179v762h179v-762z" />
    <glyph glyph-name="section" unicode="&#xa7;" horiz-adv-x="980" 
d="M696 528q0 47 -46 80t-94 38t-69 9l-43 7q-162 -4 -161 -111q0 -55 47 -82t151 -39l41 -6q24 -4 44 -5t35 -7t24 -6q71 30 71 122zM129 -190v170h356q211 0 211 141q0 45 -47 79t-92 40t-70 10l-43 6q-342 43 -342 291q0 127 82 203q-82 68 -82 204q0 285 361 285h381
v-174h-381q-180 0 -180 -107q0 -52 49 -80t149 -42l41 -7q25 -4 29 -4q328 -43 328 -295q0 -147 -78 -219q78 -82 78 -188q-1 -172 -103 -243t-291 -70h-356z" />
    <glyph glyph-name="dieresis" unicode="&#xa8;" horiz-adv-x="692" 
d="M590 1174h-176v227h176v-227zM281 1174h-179v227h179v-227z" />
    <glyph glyph-name="copyright" unicode="&#xa9;" horiz-adv-x="1251" 
d="M276 846q0 -154 100 -260t249 -106q150 0 251 106t101 260t-101 262t-251 106q-149 0 -249 -107t-100 -261zM102 847q0 228 150 385t374 157t374 -157t149 -385q0 -228 -150 -384q-149 -156 -373 -156t-374 156t-150 384zM786 735v-164h-163q-121 0 -167 70t-46 206
t46 208t167 71h163v-165h-163q-33 0 -42 -26t-9 -86t10 -87t41 -27h163z" />
    <glyph glyph-name="ordfeminine" unicode="&#xaa;" horiz-adv-x="735" 
d="M414 809q39 0 47 49v47h-139q-20 0 -34 -13q-14 -14 -16 -34q0 -20 14 -34t36 -15h92zM633 639h-311q-88 1 -154 65t-66 153t66 155t154 65h139v25q0 55 -37 55h-293v172h293q92 0 150 -63t59 -160v-467z" />
    <glyph glyph-name="guillemotleft" unicode="&#xab;" horiz-adv-x="948" 
d="M674 545q165 -132 172 -137v-218l-371 287v135l371 285v-215zM301 545l174 -137v-218l-373 287v135l373 285v-215z" />
    <glyph glyph-name="logicalnot" unicode="&#xac;" horiz-adv-x="1705" 
 />
    <glyph glyph-name="uni00AD" unicode="&#xad;" horiz-adv-x="770" 
d="M668 641v-176h-566v176h566z" />
    <glyph glyph-name="registered" unicode="&#xae;" horiz-adv-x="1251" 
d="M276 846q0 -154 100 -260t249 -106q150 0 251 106t101 260t-101 262t-251 106q-149 0 -249 -107t-100 -261zM102 847q0 228 150 385t374 157t374 -157t149 -385q0 -228 -150 -384q-149 -156 -373 -156t-374 156t-150 384zM582 922h53q27 0 27 24t-54 25h-26v-49zM582 776
v-168h-146v510h170q111 0 156 -38t45 -133t-62 -142l107 -197h-166l-84 168h-20z" />
    <glyph glyph-name="macron" unicode="&#xaf;" horiz-adv-x="833" 
d="M731 1386v-180h-629v180h629z" />
    <glyph glyph-name="degree" unicode="&#xb0;" horiz-adv-x="815" 
d="M279 1083q1 -59 35 -96t92 -37t97 37q38 37 38 96t-38 95t-96 36t-94 -35q-34 -37 -34 -96zM102 1084q0 136 84 220t220 85q136 0 222 -84q85 -83 85 -221t-84 -221t-221 -83t-222 84q-84 84 -84 220z" />
    <glyph glyph-name="plusminus" unicode="&#xb1;" horiz-adv-x="1093" 
d="M991 324v-179h-889v179h889zM629 416h-178v260h-349v178h349v252h178v-252h362v-178h-362v-260z" />
    <glyph glyph-name="twosuperior" unicode="&#xb2;" horiz-adv-x="716" 
d="M102 520v142l244 233q68 63 68 113v24q0 23 -22 35t-50 12h-240v174h240q110 0 178 -58t68 -163v-24q0 -78 -29 -129t-88 -111l-76 -72h219v-176h-512z" />
    <glyph glyph-name="threesuperior" unicode="&#xb3;" horiz-adv-x="700" 
d="M174 811v176h209q39 0 39 41q0 23 -12 38t-33 15h-275v174h275q96 0 159 -64q62 -65 62 -147t-45 -149q45 -61 45 -153t-62 -156t-159 -64h-275v176h275q45 0 45 52q0 27 -12 44t-33 17h-203z" />
    <glyph glyph-name="acute" unicode="&#xb4;" horiz-adv-x="673" 
d="M571 1198l-399 -186l-70 157l398 187z" />
    <glyph glyph-name="mu" unicode="&#xb5;" horiz-adv-x="999" 
d="M283 -455h-181v1497h181v-700q0 -76 46 -123t111 -47h279v870h178v-1042h-457q-80 0 -157 37v-492z" />
    <glyph glyph-name="mu" unicode="&#x3bc;" horiz-adv-x="999" 
d="M283 -455h-181v1497h181v-700q0 -76 46 -123t111 -47h279v870h178v-1042h-457q-80 0 -157 37v-492z" />
    <glyph glyph-name="paragraph" unicode="&#xb6;" horiz-adv-x="1165" 
d="M907 -299h-178v1368h-55v-1368h-176v793h-62q-139 0 -236 96t-98 258q0 211 143 333q81 69 195 68h623v-180h-156v-1368z" />
    <glyph glyph-name="periodcentered" unicode="&#xb7;" horiz-adv-x="391" 
d="M289 496h-187v260h187v-260z" />
    <glyph glyph-name="cedilla" unicode="&#xb8;" horiz-adv-x="507" 
d="M229 -145v10q-43 4 -69 33t-25 73v160h174v-106q53 -11 75 -49t22 -126t-36 -124q-36 -37 -134 -37h-134v166h127z" />
    <glyph glyph-name="onesuperior" unicode="&#xb9;" horiz-adv-x="573" 
d="M471 1257v-735h-178v494q-68 -45 -94 -66l-97 148l234 159h135z" />
    <glyph glyph-name="ordmasculine" unicode="&#xba;" horiz-adv-x="794" 
d="M397 819q63 0 88 34t25 134t-25 132t-88 32t-88 -32t-25 -132t26 -134q24 -34 87 -34zM398 643q-156 0 -226 78t-70 267t70 264t226 75q155 0 225 -75q69 -76 69 -266t-70 -266t-224 -77z" />
    <glyph glyph-name="guillemotright" unicode="&#xbb;" horiz-adv-x="948" 
d="M475 612v-135l-373 -287v218l172 135l-172 139v215zM846 612v-135l-371 -287v218l172 135q-61 53 -172 139v215z" />
    <glyph glyph-name="onequarter" unicode="&#xbc;" horiz-adv-x="1380" 
d="M471 1257v-735h-178v494q-78 -51 -94 -66l-97 148l232 159h137zM709 123v127l190 477l168 -49l-152 -379h86v160h179v-160h98v-176h-98v-123h-179v123h-292zM485 0h-192l563 1257h191z" />
    <glyph glyph-name="onehalf" unicode="&#xbd;" horiz-adv-x="1474" 
d="M475 1257v-735h-180v494l-92 -66l-101 148l236 159h137zM483 0h-190l565 1257h189zM858 0v141q205 193 258 252t53 92v27q0 47 -69 47h-242v176h242q106 0 175 -60t68 -163v-27q0 -78 -33 -137t-161 -172h223v-176h-514z" />
    <glyph glyph-name="threequarters" unicode="&#xbe;" horiz-adv-x="1441" 
d="M772 123v129l193 475l165 -49l-151 -379h86v160h178v-160h96v-176h-96v-123h-178v123h-293zM549 0h-193l564 1257h192zM178 811v176h209q39 0 39 41q0 23 -13 38t-32 15h-279v174h279q94 0 157 -64q62 -65 62 -150t-45 -146q45 -65 45 -155t-62 -154t-157 -64h-279v176
h279q45 0 45 52q0 27 -13 44t-32 17h-203z" />
    <glyph glyph-name="questiondown" unicode="&#xbf;" horiz-adv-x="954" 
d="M442 1090h185v-263h-185v263zM446 723h177v-135q0 -78 -29 -126t-96 -110l-119 -110q-94 -98 -94 -181q0 -188 221 -188h346v-174h-346q-193 0 -298 92q-106 92 -106 263t156 315l117 104q72 68 71 115v135z" />
    <glyph glyph-name="Agrave" unicode="&#xc0;" horiz-adv-x="1376" 
d="M686 1108l-186 -522h374zM438 403l-143 -403h-193l506 1434h158l508 -1434h-195l-141 403h-500zM850 1518l-410 192l76 164l408 -193z" />
    <glyph glyph-name="Aacute" unicode="&#xc1;" horiz-adv-x="1376" 
d="M686 1108l-186 -522h374zM438 403l-143 -403h-193l506 1434h158l508 -1434h-195l-141 403h-500zM924 1712l-410 -192l-74 161l408 195z" />
    <glyph glyph-name="Acircumflex" unicode="&#xc2;" horiz-adv-x="1376" 
d="M686 1108l-186 -522h374zM438 403l-143 -403h-193l506 1434h158l508 -1434h-195l-141 403h-500zM618 1896h134l329 -362h-233l-162 176q-123 -133 -158 -176h-237z" />
    <glyph glyph-name="Atilde" unicode="&#xc3;" horiz-adv-x="1376" 
d="M686 1108l-186 -522h374zM438 403l-143 -403h-193l506 1434h158l508 -1434h-195l-141 403h-500zM572 1804q89 0 180 -69q33 -29 61 -29q4 0 84 80l133 -131q-139 -139 -224 -139t-177 73q-39 31 -59 31t-107 -80l-123 135q143 129 232 129z" />
    <glyph glyph-name="Adieresis" unicode="&#xc4;" horiz-adv-x="1376" 
d="M686 1108l-186 -522h374zM438 403l-143 -403h-193l506 1434h158l508 -1434h-195l-141 403h-500zM926 1534h-183v233h183v-233zM606 1534h-182v233h182v-233z" />
    <glyph glyph-name="Aring" unicode="&#xc5;" horiz-adv-x="1376" 
d="M686 1108l-186 -522h374zM438 403l-143 -403h-193l506 1434h158l508 -1434h-195l-141 403h-500zM741 1728q0 24 -16 40t-39 18q-23 0 -39 -17t-16 -41t16 -41t39 -17t39 16q16 18 16 42zM459 1729q1 97 65 161t161 64t162 -66t65 -160t-66 -160q-64 -65 -161 -65t-162 65
q-64 65 -64 161z" />
    <glyph glyph-name="AE" unicode="&#xc6;" horiz-adv-x="1583" 
d="M594 586v254l-92 -254h92zM1370 836v-185h-590v-469h701v-182h-887v403h-158l-135 -403h-199l510 1434h869v-183h-701v-415h590z" />
    <glyph glyph-name="Ccedilla" unicode="&#xc7;" horiz-adv-x="1120" 
d="M373 -322v168h133q-2 2 -2 13q-43 4 -72 35t-29 75v60q-145 49 -223 171t-78 296v430q0 508 494 508h422v-181h-422q-311 0 -311 -327v-430q0 -138 83 -228t228 -90h422v-178h-381q47 -37 47 -142q0 -104 -36 -142t-138 -38h-137z" />
    <glyph glyph-name="Egrave" unicode="&#xc8;" horiz-adv-x="1089" 
d="M877 836v-185h-590v-469h700v-182h-885v1434h885v-183h-700v-415h590zM676 1520l-414 192l74 164l412 -195z" />
    <glyph glyph-name="Eacute" unicode="&#xc9;" horiz-adv-x="1089" 
d="M877 836v-185h-590v-469h700v-182h-885v1434h885v-183h-700v-415h590zM748 1704l-414 -193l-72 162l412 191z" />
    <glyph glyph-name="Ecircumflex" unicode="&#xca;" horiz-adv-x="1089" 
d="M877 836v-185h-590v-469h700v-182h-885v1434h885v-183h-700v-415h590zM440 1896h129l332 -362h-233l-166 174l-160 -174h-233z" />
    <glyph glyph-name="Edieresis" unicode="&#xcb;" horiz-adv-x="1089" 
d="M877 836v-185h-590v-469h700v-182h-885v1434h885v-183h-700v-415h590zM758 1534h-183v233h183v-233zM438 1534h-184v233h184v-233z" />
    <glyph glyph-name="Igrave" unicode="&#xcc;" horiz-adv-x="688" 
d="M436 0h-184v1434h184v-1434zM514 1524l-412 192l74 162l410 -192z" />
    <glyph glyph-name="Iacute" unicode="&#xcd;" horiz-adv-x="688" 
d="M436 0h-184v1434h184v-1434zM586 1712l-412 -192l-72 163l410 193z" />
    <glyph glyph-name="Icircumflex" unicode="&#xce;" horiz-adv-x="997" 
d="M592 0h-186v1434h186v-1434zM434 1896h131l330 -362h-231l-166 176l-160 -176h-236z" />
    <glyph glyph-name="Idieresis" unicode="&#xcf;" horiz-adv-x="706" 
d="M444 0h-182v1434h182v-1434zM604 1534h-180v233h180v-233zM285 1534h-183v233h183v-233z" />
    <glyph glyph-name="Eth" unicode="&#xd0;" horiz-adv-x="1517" 
d="M1047 788v-180h-447v-430h322q145 0 225 89t80 229v430q0 328 -305 327h-322v-465h447zM102 608v180h314v646h506q494 0 493 -508v-430q0 -224 -131 -360t-362 -136h-506v608h-314z" />
    <glyph glyph-name="Ntilde" unicode="&#xd1;" horiz-adv-x="1261" 
d="M1159 0h-153l-719 1063v-1063h-185v1434h156l719 -1063v1063h182v-1434zM979 1640q-141 -137 -213 -137t-188 72q-32 29 -58 29t-110 -80l-121 139q141 127 233 127t193 -80q27 -18 45 -18l90 80z" />
    <glyph glyph-name="Ograve" unicode="&#xd2;" 
d="M811 1524l-410 192l74 164l410 -192zM291 926v-430q0 -138 80 -228t225 -90h90q145 0 227 89t82 229v430q0 328 -309 327h-90q-305 1 -305 -327zM596 1434h90q494 0 494 -508v-430q0 -228 -130 -362t-364 -134h-90q-231 0 -363 135q-131 135 -131 361v430q0 508 494 508z
" />
    <glyph glyph-name="Oacute" unicode="&#xd3;" 
d="M885 1716l-412 -192l-72 162l408 194zM291 926v-430q0 -138 80 -228t225 -90h90q145 0 227 89t82 229v430q0 328 -309 327h-90q-305 1 -305 -327zM596 1434h90q494 0 494 -508v-430q0 -228 -130 -362t-364 -134h-90q-231 0 -363 135q-131 135 -131 361v430q0 508 494 508
z" />
    <glyph glyph-name="Ocircumflex" unicode="&#xd4;" 
d="M580 1896h131l329 -362h-235l-158 174l-166 -174h-233zM291 926v-430q0 -138 80 -228t225 -90h90q145 0 227 89t82 229v430q0 328 -309 327h-90q-305 1 -305 -327zM596 1434h90q494 0 494 -508v-430q0 -228 -130 -362t-364 -134h-90q-231 0 -363 135q-131 135 -131 361
v430q0 508 494 508z" />
    <glyph glyph-name="Otilde" unicode="&#xd5;" 
d="M535 1806q93 0 178 -69q33 -29 59 -29l6 4q4 6 14 15t21 18l51 43l125 -129q-141 -141 -217 -141q-102 0 -178 71q-29 33 -68 33q-24 0 -104 -80l-123 135q143 129 236 129zM291 926v-430q0 -138 80 -228t225 -90h90q145 0 227 89t82 229v430q0 328 -309 327h-90
q-305 1 -305 -327zM596 1434h90q494 0 494 -508v-430q0 -228 -130 -362t-364 -134h-90q-231 0 -363 135q-131 135 -131 361v430q0 508 494 508z" />
    <glyph glyph-name="Odieresis" unicode="&#xd6;" 
d="M893 1534h-182v233h182v-233zM573 1534h-182v233h182v-233zM291 926v-430q0 -138 80 -228t225 -90h90q145 0 227 89t82 229v430q0 328 -309 327h-90q-305 1 -305 -327zM596 1434h90q494 0 494 -508v-430q0 -228 -130 -362t-364 -134h-90q-231 0 -363 135
q-131 135 -131 361v430q0 508 494 508z" />
    <glyph glyph-name="multiply" unicode="&#xd7;" horiz-adv-x="1036" 
d="M102 803l127 125l287 -289l293 291l125 -125l-291 -291l291 -291l-125 -125l-293 289l-287 -287l-127 125l293 289z" />
    <glyph glyph-name="Oslash" unicode="&#xd8;" 
d="M596 178h90q145 0 227 89t82 229v430q0 129 -43 200l-422 -944q25 -4 66 -4zM291 926v-430q0 -135 78 -226l434 973q-51 10 -117 10h-90q-305 1 -305 -327zM102 926q0 508 494 508h90q111 0 191 -27l90 190h192l-123 -276q143 -125 144 -395v-430q0 -228 -130 -362
t-364 -134h-90q-80 0 -139 14q-50 -119 -80 -178h-197l107 252q-184 135 -185 408v430z" />
    <glyph glyph-name="Ugrave" unicode="&#xd9;" horiz-adv-x="1210" 
d="M928 1434h180v-1006q0 -200 -102 -320t-279 -120h-229q-168 0 -282 116t-114 324v1006h179v-1006q0 -122 62 -190t153 -68h235q94 0 146 71q51 71 51 187v1006zM776 1526l-414 192l74 164l412 -194z" />
    <glyph glyph-name="Uacute" unicode="&#xda;" horiz-adv-x="1210" 
d="M928 1434h180v-1006q0 -200 -102 -320t-279 -120h-229q-168 0 -282 116t-114 324v1006h179v-1006q0 -122 62 -190t153 -68h235q94 0 146 71q51 71 51 187v1006zM848 1714l-414 -192l-72 164l412 192z" />
    <glyph glyph-name="Ucircumflex" unicode="&#xdb;" horiz-adv-x="1210" 
d="M928 1434h180v-1006q0 -200 -102 -320t-279 -120h-229q-168 0 -282 116t-114 324v1006h179v-1006q0 -122 62 -190t153 -68h235q94 0 146 71q51 71 51 187v1006zM543 1896h129l329 -362h-231l-166 174l-160 -174h-233z" />
    <glyph glyph-name="Udieresis" unicode="&#xdc;" horiz-adv-x="1210" 
d="M928 1434h180v-1006q0 -200 -102 -320t-279 -120h-229q-168 0 -282 116t-114 324v1006h179v-1006q0 -122 62 -190t153 -68h235q94 0 146 71q51 71 51 187v1006zM856 1534h-182v233h182v-233zM537 1534h-185v233h185v-233z" />
    <glyph glyph-name="Yacute" unicode="&#xdd;" horiz-adv-x="1339" 
d="M913 1712l-411 -192l-72 163l408 189zM766 0h-182v645l-482 789h220l354 -592l344 592h217l-471 -791v-643z" />
    <glyph glyph-name="Thorn" unicode="&#xde;" horiz-adv-x="1181" 
d="M897 655v179q0 190 -238 190h-374v-594h374q117 0 177 62t61 163zM285 0h-183v1434h183v-232h374q201 0 311 -93t109 -273v-181q0 -184 -105 -295t-315 -110h-374v-250z" />
    <glyph glyph-name="germandbls" unicode="&#xdf;" horiz-adv-x="1181" 
d="M379 0v176h299q92 0 159 66t67 158t-67 161q-67 68 -159 68h-90v174q112 0 188 60q76 61 76 145t-60 143t-147 59h-61q-301 0 -301 -315v-895h-181v895q0 258 123 376t359 118h61q159 0 271 -111q112 -110 112 -274t-121 -275q172 -127 172 -330q1 -167 -117 -283
t-284 -116h-299z" />
    <glyph glyph-name="agrave" unicode="&#xe0;" horiz-adv-x="985" 
d="M705 446h-291q-55 0 -96 -40q-40 -40 -40 -96t40 -95q38 -39 96 -39h155q53 0 93 37q39 37 43 92v141zM569 0h-155q-133 0 -223 89q-89 89 -89 219t90 221t222 92h291v100q0 61 -32 104t-85 43h-430v174h430q129 0 212 -90t83 -225v-727h-178v29q-64 -29 -136 -29z
M690 1126l-401 183l73 159l398 -186z" />
    <glyph glyph-name="aacute" unicode="&#xe1;" horiz-adv-x="985" 
d="M705 446h-291q-55 0 -96 -40q-40 -40 -40 -96t40 -95q38 -39 96 -39h155q53 0 93 37q39 37 43 92v141zM569 0h-155q-133 0 -223 89q-89 89 -89 219t90 221t222 92h291v100q0 61 -32 104t-85 43h-430v174h430q129 0 212 -90t83 -225v-727h-178v29q-64 -29 -136 -29z
M760 1311l-400 -183l-71 156l399 186z" />
    <glyph glyph-name="acircumflex" unicode="&#xe2;" horiz-adv-x="1015" 
d="M705 446h-291q-55 0 -96 -40q-40 -40 -40 -96t40 -95t96 -39h155q53 0 94 37q40 37 42 92v141zM569 0h-155q-131 0 -221 89q-91 89 -91 219t92 221t220 92h291v100q0 61 -32 104t-85 43h-430v174h430q129 0 212 -90t83 -225v-727h-178v29q-64 -29 -136 -29zM463 1489h129
l321 -348h-231l-160 166l-153 -166h-230z" />
    <glyph glyph-name="atilde" unicode="&#xe3;" horiz-adv-x="985" 
d="M705 446h-291q-55 0 -96 -40q-40 -40 -40 -96t40 -95q38 -39 96 -39h155q53 0 93 37q39 37 43 92v141zM569 0h-155q-133 0 -223 89q-89 89 -89 219t90 221t222 92h291v100q0 61 -32 104t-85 43h-430v174h430q129 0 212 -90t83 -225v-727h-178v29q-64 -29 -136 -29z
M422 1411q80 0 168 -65q43 -31 57 -31l88 76l127 -125q-137 -133 -223 -133t-162 65q-41 33 -63 33t-107 -80l-114 137q149 123 229 123z" />
    <glyph glyph-name="adieresis" unicode="&#xe4;" horiz-adv-x="985" 
d="M705 446h-291q-55 0 -96 -40q-40 -40 -40 -96t40 -95q38 -39 96 -39h155q53 0 93 37q39 37 43 92v141zM569 0h-155q-133 0 -223 89q-89 89 -89 219t90 221t222 92h291v100q0 61 -32 104t-85 43h-430v174h430q129 0 212 -90t83 -225v-727h-178v29q-64 -29 -136 -29z
M768 1141h-176v225h176v-225zM461 1141h-178v225h178v-225z" />
    <glyph glyph-name="aring" unicode="&#xe5;" horiz-adv-x="985" 
d="M705 446h-291q-55 0 -96 -40q-40 -40 -40 -96t40 -95q38 -39 96 -39h155q53 0 93 37q39 37 43 92v141zM569 0h-155q-133 0 -223 89q-89 89 -89 219t90 221t222 92h291v100q0 61 -32 104t-85 43h-430v174h430q129 0 212 -90t83 -225v-727h-178v29q-64 -29 -136 -29z
M473 1346q0 -23 16 -39q15 -17 37 -17t38 16t16 40q0 22 -16 38t-37 16q-22 0 -38 -15q-16 -16 -16 -39zM307 1345q1 93 63 156t155 63t155 -62q62 -64 63 -157q0 -93 -62 -155q-61 -62 -155 -64q-94 0 -156 63t-63 156z" />
    <glyph glyph-name="ae" unicode="&#xe6;" horiz-adv-x="1605" 
d="M883 604h440v31q0 233 -223 233q-100 0 -158 -60t-59 -161v-43zM705 446h-291q-55 0 -96 -40q-40 -40 -40 -96t40 -95q38 -39 96 -39h155q55 0 96 37q40 37 40 88v145zM1473 172v-172h-381q-125 0 -209 43v-43h-178v29q-63 -29 -136 -29h-155q-129 0 -220 89
q-92 89 -92 218t92 221t220 93h291v100q0 63 -31 105t-86 42h-430v174h430q133 0 225 -110q115 110 299 110t287 -104q104 -104 104 -303v-203h-620q6 -133 54 -196t157 -64h379z" />
    <glyph glyph-name="ccedilla" unicode="&#xe7;" horiz-adv-x="911" 
d="M293 -311v166h129q-4 2 -4 10q-43 4 -69 33t-25 73v58q-221 82 -222 407v180q0 426 408 426h299v-174h-299q-233 0 -234 -252v-180q0 -264 234 -264h299v-172h-258q43 -33 43 -135t-35 -139t-135 -37h-131z" />
    <glyph glyph-name="egrave" unicode="&#xe8;" horiz-adv-x="1003" 
d="M281 604h440v31q0 233 -225 233q-102 0 -158 -63t-57 -170v-31zM868 172v-172h-376q-221 0 -306 115q-84 115 -84 370v150q0 188 112 298q112 109 294 109t288 -104q105 -104 105 -303v-203h-620q4 -133 52 -196t159 -64h376zM657 1128l-397 183l76 159l395 -186z" />
    <glyph glyph-name="eacute" unicode="&#xe9;" horiz-adv-x="1003" 
d="M281 604h440v31q0 233 -225 233q-102 0 -158 -63t-57 -170v-31zM868 172v-172h-376q-221 0 -306 115q-84 115 -84 370v150q0 188 112 298q112 109 294 109t288 -104q105 -104 105 -303v-203h-620q4 -133 52 -196t159 -64h376zM731 1311l-397 -183l-74 156l397 186z" />
    <glyph glyph-name="ecircumflex" unicode="&#xea;" horiz-adv-x="1003" 
d="M281 604h440v31q0 233 -225 233q-102 0 -158 -63t-57 -170v-31zM868 172v-172h-376q-221 0 -306 115q-84 115 -84 370v150q0 188 112 298q112 109 294 109t288 -104q105 -104 105 -303v-203h-620q4 -133 52 -196t159 -64h376zM498 1303q-100 -107 -158 -162h-229l325 348
h123l326 -348h-232z" />
    <glyph glyph-name="edieresis" unicode="&#xeb;" horiz-adv-x="1003" 
d="M281 604h440v31q0 233 -225 233q-102 0 -158 -63t-57 -170v-31zM868 172v-172h-376q-221 0 -306 115q-84 115 -84 370v150q0 188 112 298q112 109 294 109t288 -104q105 -104 105 -303v-203h-620q4 -133 52 -196t159 -64h376zM739 1143h-178v225h178v-225zM430 1143h-178
v225h178v-225z" />
    <glyph glyph-name="igrave" unicode="&#xec;" horiz-adv-x="673" 
d="M430 0h-178v1024h178v-1024zM502 1133l-400 182l72 160l397 -187z" />
    <glyph glyph-name="iacute" unicode="&#xed;" horiz-adv-x="673" 
d="M428 0h-178v1024h178v-1024zM571 1313l-399 -183l-70 156l398 187z" />
    <glyph glyph-name="icircumflex" unicode="&#xee;" horiz-adv-x="972" 
d="M573 0h-180v1024h180v-1024zM420 1491h129l321 -350h-227l-158 166l-157 -166h-226z" />
    <glyph glyph-name="idieresis" unicode="&#xef;" horiz-adv-x="692" 
d="M430 0h-180v1024h180v-1024zM590 1141h-176v225h176v-225zM281 1141h-179v225h179v-225z" />
    <glyph glyph-name="eth" unicode="&#xf0;" horiz-adv-x="1118" 
d="M821 682h-280q-258 0 -258 -197v-77q-1 -109 65 -170q66 -62 204 -62t204 68t65 233v205zM537 860h284q-4 90 -26 141l-125 -124l-125 124l129 129q-55 27 -164 27h-367v176h367q170 0 295 -73l86 88l125 -123l-86 -86q74 -113 74 -297v-369q0 -249 -112 -361t-337 -112
t-339 111t-114 297v77q1 375 435 375z" />
    <glyph glyph-name="ntilde" unicode="&#xf1;" horiz-adv-x="999" 
d="M897 0h-178v686q0 80 -47 131t-113 51h-119q-66 0 -112 -48t-47 -124v-696h-179v1042h179v-38q74 39 159 38h119q141 0 239 -97t99 -259v-686zM389 1409q39 0 139 -53l35 -19q39 -25 58 -24q24 20 46 40q22 19 38 31l129 -122q-141 -133 -213 -134q-94 0 -168 66
q-43 33 -65 33t-105 -76l-121 131q141 127 227 127z" />
    <glyph glyph-name="ograve" unicode="&#xf2;" horiz-adv-x="1028" 
d="M678 1128l-397 183l69 159l400 -186zM457 162h116q74 0 126 58t53 140v287q0 88 -52 154t-127 65h-116q-72 0 -124 -66t-52 -153v-287q0 -84 51 -141t125 -57zM573 -12h-116q-154 0 -254 103t-101 269v287q0 170 100 282t255 111h116q154 0 253 -112t100 -281v-287
q0 -166 -100 -269t-253 -103z" />
    <glyph glyph-name="oacute" unicode="&#xf3;" horiz-adv-x="1028" 
d="M750 1313l-402 -183l-67 156l395 187zM457 162h116q74 0 126 58t53 140v287q0 88 -52 154t-127 65h-116q-72 0 -124 -66t-52 -153v-287q0 -84 51 -141t125 -57zM573 -12h-116q-154 0 -254 103t-101 269v287q0 170 100 282t255 111h116q154 0 253 -112t100 -281v-287
q0 -166 -100 -269t-253 -103z" />
    <glyph glyph-name="ocircumflex" unicode="&#xf4;" horiz-adv-x="1028" 
d="M451 1491h129l323 -348h-229l-160 162l-154 -162h-225zM457 162h116q74 0 126 58t53 140v287q0 88 -52 154t-127 65h-116q-72 0 -124 -66t-52 -153v-287q0 -84 51 -141t125 -57zM573 -12h-116q-154 0 -254 103t-101 269v287q0 170 100 282t255 111h116q154 0 253 -112
t100 -281v-287q0 -166 -100 -269t-253 -103z" />
    <glyph glyph-name="otilde" unicode="&#xf5;" horiz-adv-x="1028" 
d="M632 1124q-79 0 -155 64l-20 10q-33 25 -51 25t-103 -78l-125 133q146 127 232 127t170 -68q37 -31 61 -30q7 0 84 77l127 -127q-141 -133 -220 -133zM457 162h116q74 0 126 58t53 140v287q0 88 -52 154t-127 65h-116q-72 0 -124 -66t-52 -153v-287q0 -84 51 -141
t125 -57zM573 -12h-116q-154 0 -254 103t-101 269v287q0 170 100 282t255 111h116q154 0 253 -112t100 -281v-287q0 -166 -100 -269t-253 -103z" />
    <glyph glyph-name="odieresis" unicode="&#xf6;" horiz-adv-x="1028" 
d="M760 1143h-178v225h178v-225zM449 1143h-175v225h175v-225zM457 162h116q74 0 126 58t53 140v287q0 88 -52 154t-127 65h-116q-72 0 -124 -66t-52 -153v-287q0 -84 51 -141t125 -57zM573 -12h-116q-154 0 -254 103t-101 269v287q0 170 100 282t255 111h116
q154 0 253 -112t100 -281v-287q0 -166 -100 -269t-253 -103z" />
    <glyph glyph-name="divide" unicode="&#xf7;" horiz-adv-x="929" 
d="M557 254h-186v258h186v-258zM557 879h-186v262h186v-262zM827 788v-178h-725v178h725z" />
    <glyph glyph-name="oslash" unicode="&#xf8;" horiz-adv-x="1028" 
d="M457 866q-72 0 -124 -66t-52 -153v-287q0 -35 16 -84l262 590h-102zM573 162q74 0 126 58t53 140v287q0 74 -35 131l-275 -616h131zM102 360v287q0 170 100 282t255 111h116q33 0 64 -6l74 160h192l-108 -236q131 -98 131 -311v-287q0 -166 -100 -269t-253 -103h-116
q-43 0 -84 12l-80 -170h-191l113 254q-113 106 -113 276z" />
    <glyph glyph-name="ugrave" unicode="&#xf9;" horiz-adv-x="999" 
d="M102 1042h179v-690q0 -78 46 -129t113 -51h119q66 0 113 47t47 123v700h178v-1042h-178v35q-74 -35 -160 -35h-119q-141 0 -239 95t-99 257v690zM672 1133l-400 182l72 160l399 -187z" />
    <glyph glyph-name="uacute" unicode="&#xfa;" horiz-adv-x="999" 
d="M102 1042h179v-690q0 -78 46 -129t113 -51h119q66 0 113 47t47 123v700h178v-1042h-178v35q-74 -35 -160 -35h-119q-141 0 -239 95t-99 257v690zM743 1311l-401 -183l-70 156l398 186z" />
    <glyph glyph-name="ucircumflex" unicode="&#xfb;" horiz-adv-x="999" 
d="M102 1042h179v-690q0 -78 46 -129t113 -51h119q66 0 113 47t47 123v700h178v-1042h-178v35q-74 -35 -160 -35h-119q-141 0 -239 95t-99 257v690zM444 1489h129l324 -348h-229l-160 162l-154 -162h-231z" />
    <glyph glyph-name="udieresis" unicode="&#xfc;" horiz-adv-x="999" 
d="M102 1042h179v-690q0 -78 46 -129t113 -51h119q66 0 113 47t47 123v700h178v-1042h-178v35q-74 -35 -160 -35h-119q-141 0 -239 95t-99 257v690zM752 1143h-179v225h179v-225zM440 1143h-174v225h174v-225z" />
    <glyph glyph-name="yacute" unicode="&#xfd;" horiz-adv-x="1097" 
d="M465 -420h-182l174 477l-361 985h183l270 -731l270 731h185zM776 1307l-401 -183l-70 156l397 186z" />
    <glyph glyph-name="thorn" unicode="&#xfe;" horiz-adv-x="995" 
d="M281 862v-690h274q68 0 114 51t46 129v287q0 99 -47 161t-117 62h-270zM281 -420h-179v1862h179v-400h270q88 0 158 -40q69 -40 107 -102q74 -123 77 -257v-291q0 -162 -98 -257t-240 -95h-274v-420z" />
    <glyph glyph-name="ydieresis" unicode="&#xff;" horiz-adv-x="1097" 
d="M465 -420h-182l174 477l-361 985h183l270 -731l270 731h185zM784 1141h-178v225h178v-225zM475 1141h-176v225h176v-225z" />
    <glyph glyph-name="Amacron" unicode="&#x100;" horiz-adv-x="1376" 
d="M1012 1718v-184h-647v184h647zM686 1108l-186 -522h374zM440 403l-145 -403h-193l506 1434h158l508 -1434h-195l-141 403h-498z" />
    <glyph glyph-name="amacron" unicode="&#x101;" horiz-adv-x="985" 
d="M805 1315v-174h-629v174h629zM705 446h-291q-55 0 -96 -40q-40 -40 -40 -96t40 -95q38 -39 96 -39h155q53 0 93 37q39 37 43 92v141zM569 0h-155q-133 0 -223 89q-89 89 -89 219t90 221t222 92h291v100q0 61 -32 104t-85 43h-430v174h430q129 0 212 -90t83 -225v-727
h-178v29q-64 -29 -136 -29z" />
    <glyph glyph-name="Abreve" unicode="&#x102;" horiz-adv-x="1376" 
d="M403 1817h172q1 -49 17 -83t39 -34h117q20 0 35 35t18 82h170q0 -119 -65 -202t-158 -83h-119q-94 0 -160 83t-66 202zM686 1108l-186 -522h374zM440 403l-145 -403h-193l506 1434h158l508 -1434h-195l-141 403h-498z" />
    <glyph glyph-name="abreve" unicode="&#x103;" horiz-adv-x="985" 
d="M219 1413h166q0 -47 15 -80t38 -33h107q20 0 36 33q15 33 17 80h168q0 -115 -64 -193t-157 -79h-109q-94 -1 -156 77t-61 195zM705 446h-291q-55 0 -96 -40q-40 -40 -40 -96t40 -95q38 -39 96 -39h155q53 0 93 37q39 37 43 92v141zM569 0h-155q-133 0 -223 89
q-89 89 -89 219t90 221t222 92h291v100q0 61 -32 104t-85 43h-430v174h430q129 0 212 -90t83 -225v-727h-178v29q-64 -29 -136 -29z" />
    <glyph glyph-name="Aogonek" unicode="&#x104;" horiz-adv-x="1492" 
d="M688 1108l-188 -522h377q-23 68 -66 182t-57 158zM1155 -117h236v-170h-246q-170 0 -170 232q0 127 72 159l-107 299h-506l-137 -403h-195l510 1434h154l485 -1377q0 -96 -96 -112v-62z" />
    <glyph glyph-name="aogonek" unicode="&#x105;" horiz-adv-x="1118" 
d="M702 446h-288q-57 0 -98 -40q-40 -40 -40 -96t40 -95t98 -39h155q51 0 93 37q41 37 40 90v143zM1016 -113v-163h-240q-166 0 -166 223q0 39 2 55q-14 -2 -43 -2h-155q-133 0 -223 89q-89 89 -89 219t90 221t222 92h288v100q0 63 -32 105q-33 42 -88 42h-426v174h426
q133 0 216 -89t83 -226v-670q0 -45 -26 -73t-69 -37v-60h230z" />
    <glyph glyph-name="Cacute" unicode="&#x106;" 
d="M995 537h185q0 -245 -130 -391t-364 -146h-90q-231 0 -363 135q-131 135 -131 361v430q0 508 494 508h90q494 0 494 -566h-185q0 385 -309 385h-90q-305 0 -305 -327v-430q0 -138 80 -228t225 -90h90q147 0 228 100t81 259zM885 1706l-412 -193l-72 164l408 193z" />
    <glyph glyph-name="cacute" unicode="&#x107;" horiz-adv-x="911" 
d="M690 1309l-399 -183l-72 156l399 186zM809 172v-172h-299q-209 0 -308 106t-100 330v180q0 426 408 426h299v-174h-299q-233 0 -234 -252v-180q0 -264 234 -264h299z" />
    <glyph glyph-name="Ccaron" unicode="&#x10c;" 
d="M995 537h185q0 -245 -130 -391t-364 -146h-90q-231 0 -363 135q-131 135 -131 361v430q0 508 494 508h90q494 0 494 -566h-185q0 385 -309 385h-90q-305 0 -305 -327v-430q0 -138 80 -228t225 -90h90q147 0 228 100t81 259zM709 1532h-131l-332 362h233l166 -174l158 174
h235z" />
    <glyph glyph-name="ccaron" unicode="&#x10d;" horiz-adv-x="978" 
d="M553 1139h-127l-324 348h232l155 -168l156 168h232zM844 172v-172h-299q-209 0 -308 106t-100 330v180q0 426 408 426h299v-174h-299q-233 0 -234 -252v-180q0 -264 234 -264h299z" />
    <glyph glyph-name="Dcaron" unicode="&#x10e;" horiz-adv-x="1200" 
d="M664 1532h-129l-332 362h233l164 -172l162 172h233zM102 0v1434h502q494 0 494 -508v-430q0 -228 -130 -362t-364 -134h-502zM913 496v430q0 328 -309 327h-319v-1075h319q145 0 227 90t82 228z" />
    <glyph glyph-name="dcaron" unicode="&#x10f;" horiz-adv-x="1296" 
d="M1014 1386h180v-221q0 -59 -53 -112t-135 -80l-66 149q74 31 74 43v221zM713 686q0 80 -46 131t-112 51h-121q-66 0 -112 -51t-46 -131v-287q0 -96 46 -158t116 -63h135q53 0 95 37q41 37 45 92v379zM434 1042h121q84 0 158 -38v385h176v-1389h-176v29q-68 -29 -140 -29
h-135q-114 0 -194 69q-142 123 -142 324v293q0 162 98 259t234 97z" />
    <glyph glyph-name="Dcroat" unicode="&#x110;" horiz-adv-x="1517" 
d="M1047 788v-180h-447v-430h322q145 0 225 89t80 229v430q0 328 -305 327h-322v-465h447zM102 608v180h314v646h506q494 0 493 -508v-430q0 -224 -131 -360t-362 -136h-506v608h-314z" />
    <glyph glyph-name="dcroat" unicode="&#x111;" horiz-adv-x="1247" 
d="M715 686q0 80 -45 131t-113 51h-117q-68 0 -114 -51t-45 -131v-287q0 -98 46 -159t117 -62h136q53 0 92 37t43 92v379zM1145 1290v-178h-252v-1112h-178v29q-63 -29 -135 -29h-136q-200 0 -292 188q-48 94 -50 205v293q0 162 98 259t240 97h117q84 0 158 -38v108h-264
v178h264v144h178v-144h252z" />
    <glyph glyph-name="Emacron" unicode="&#x112;" horiz-adv-x="1089" 
d="M870 1716v-184h-647v184h647zM877 836v-185h-590v-469h700v-182h-885v1434h885v-183h-700v-415h590z" />
    <glyph glyph-name="emacron" unicode="&#x113;" horiz-adv-x="1003" 
d="M815 1313v-174h-631v174h631zM281 604h440v31q0 233 -225 233q-102 0 -158 -63t-57 -170v-31zM868 172v-172h-376q-221 0 -306 115q-84 115 -84 370v150q0 188 112 298q112 109 294 109t288 -104q105 -104 105 -303v-203h-620q4 -133 52 -196t159 -64h376z" />
    <glyph glyph-name="Edotaccent" unicode="&#x116;" horiz-adv-x="1089" 
d="M637 1534h-182v233h182v-233zM877 836v-185h-590v-469h700v-182h-885v1434h885v-183h-700v-415h590z" />
    <glyph glyph-name="edotaccent" unicode="&#x117;" horiz-adv-x="1003" 
d="M590 1139h-178v223h178v-223zM281 604h440v31q0 233 -225 233q-102 0 -158 -63t-57 -170v-31zM868 172v-172h-376q-221 0 -306 115q-84 115 -84 370v150q0 188 112 298q112 109 294 109t288 -104q105 -104 105 -303v-203h-620q4 -133 52 -196t159 -64h376z" />
    <glyph glyph-name="Eogonek" unicode="&#x118;" horiz-adv-x="1089" 
d="M809 -117v-170h-246q-174 0 -174 232v55h-287v1434h885v-183h-700v-415h590v-185h-590v-469h700v-182h-332q-20 -47 -84 -55v-62h238z" />
    <glyph glyph-name="eogonek" unicode="&#x119;" horiz-adv-x="1003" 
d="M281 604h440v31q0 233 -225 233q-102 0 -158 -63t-57 -170v-31zM784 -113v-163h-239q-166 0 -166 223q0 43 4 61q-160 24 -220 138t-61 339v150q0 188 112 298q112 109 294 109t288 -104q105 -104 105 -303v-203h-620q4 -133 52 -196t159 -64h376v-172h-231
q-23 -47 -90 -53v-60h237z" />
    <glyph glyph-name="Ecaron" unicode="&#x11a;" horiz-adv-x="1089" 
d="M612 1532h-133l-329 362h235l160 -170l164 170h233zM877 836v-185h-590v-469h700v-182h-885v1434h885v-183h-700v-415h590z" />
    <glyph glyph-name="ecaron" unicode="&#x11b;" horiz-adv-x="1003" 
d="M563 1139h-125l-321 348h227l158 -164l155 164h230zM281 604h440v31q0 233 -225 233q-102 0 -158 -63t-57 -170v-31zM868 172v-172h-376q-221 0 -306 115q-84 115 -84 370v150q0 188 112 298q112 109 294 109t288 -104q105 -104 105 -303v-203h-620q4 -133 52 -196
t159 -64h376z" />
    <glyph glyph-name="Gbreve" unicode="&#x11e;" 
d="M358 1819h172q0 -49 16 -83t40 -34h114q20 0 37 35q16 35 19 82h170q0 -119 -66 -202t-160 -83h-114q-98 0 -163 83t-65 202zM686 0h-90q-231 0 -363 135q-131 135 -131 361v430q0 508 494 508h90q494 0 494 -566h-185q0 385 -309 385h-90q-305 0 -305 -327v-430
q0 -138 80 -228t225 -90h90q309 0 309 330v82h-282v180h467v-272q0 -498 -494 -498z" />
    <glyph glyph-name="gbreve" unicode="&#x11f;" horiz-adv-x="995" 
d="M223 1415h166q0 -49 15 -82t38 -33h109q20 0 36 34q15 34 17 81h166q0 -117 -62 -195t-157 -79h-109q-94 1 -156 79t-63 195zM715 342v389q-4 55 -44 93t-91 38h-138q-70 0 -116 -62t-45 -161v-287q0 -78 46 -129t111 -51h117q63 0 112 49q48 49 48 121zM555 0h-117
q-139 0 -237 95t-99 257v291q0 105 38 183q38 77 74 120q87 98 228 96h138q74 0 135 -30v30h178v-999q0 -251 -85 -363t-304 -112h-377v172h375q117 0 163 71t50 224q-80 -35 -160 -35z" />
    <glyph glyph-name="Gcommaaccent" unicode="&#x122;" 
d="M547 -102h184v-228q0 -66 -55 -120t-139 -76l-66 157q76 18 76 39v228zM686 0h-90q-231 0 -363 135q-131 135 -131 361v430q0 508 494 508h90q494 0 494 -566h-185q0 385 -309 385h-90q-305 0 -305 -327v-430q0 -138 80 -228t225 -90h90q309 0 309 330v82h-282v180h467
v-272q0 -498 -494 -498z" />
    <glyph glyph-name="gcommaaccent" unicode="&#x123;" horiz-adv-x="995" 
d="M559 1141h-182v219q0 60 53 114t133 80l74 -159q-78 -18 -78 -35v-219zM715 342v389q-4 55 -44 93t-91 38h-138q-70 0 -116 -62t-45 -161v-287q0 -78 46 -129t111 -51h117q63 0 112 49q48 49 48 121zM555 0h-117q-139 0 -237 95t-99 257v291q0 105 38 183q38 77 74 120
q87 98 228 96h138q74 0 135 -30v30h178v-999q0 -251 -85 -363t-304 -112h-377v172h375q117 0 163 71t50 224q-80 -35 -160 -35z" />
    <glyph glyph-name="imacron" unicode="&#x12b;" horiz-adv-x="833" 
d="M731 1317v-174h-629v174h629zM506 0h-178v1024h178v-1024z" />
    <glyph glyph-name="Iogonek" unicode="&#x12e;" horiz-adv-x="620" 
d="M518 -117v-170h-244q-172 0 -172 232q0 81 18 117t75 49v1323h184v-1377q0 -45 -29 -75t-78 -33q8 0 9 -4q0 -57 -5 -62h242z" />
    <glyph glyph-name="iogonek" unicode="&#x12f;" horiz-adv-x="610" 
d="M373 1174h-180v215h180v-215zM508 -113v-163h-238q-168 0 -168 223q0 79 18 115t73 49v913h180v-967q0 -94 -94 -110v-60h229z" />
    <glyph glyph-name="Idotaccent" unicode="&#x130;" horiz-adv-x="389" 
d="M285 1534h-183v233h183v-233zM287 0h-185v1434h185v-1434z" />
    <glyph glyph-name="dotlessi" unicode="&#x131;" horiz-adv-x="385" 
d="M283 0h-181v1024h181v-1024z" />
    <glyph glyph-name="Kcommaaccent" unicode="&#x136;" horiz-adv-x="1218" 
d="M481 -100h187v-228q0 -63 -56 -118t-135 -78l-76 157q80 25 80 39v228zM285 616v-616h-183v1434h183v-633h94l475 633h231l-538 -723l569 -711h-237l-500 616h-94z" />
    <glyph glyph-name="kcommaaccent" unicode="&#x137;" horiz-adv-x="1050" 
d="M283 643h96l313 381h240l-397 -467l413 -557h-225l-340 467h-100v-467h-181v1389h181v-746zM471 -102h182v-222q0 -61 -54 -113t-134 -79l-66 149q72 33 72 43v222z" />
    <glyph glyph-name="Lacute" unicode="&#x139;" horiz-adv-x="1032" 
d="M760 1702l-412 -191l-74 162l408 193zM930 182v-182h-828v1434h187v-1252h641z" />
    <glyph glyph-name="lacute" unicode="&#x13a;" horiz-adv-x="673" 
d="M571 1690l-399 -183l-70 158l398 184zM426 0h-178v1389h178v-1389z" />
    <glyph glyph-name="Lcommaaccent" unicode="&#x13b;" horiz-adv-x="1032" 
d="M485 -100h185v-228q0 -66 -56 -120t-139 -76l-65 157q76 18 75 39v228zM930 182v-182h-828v1434h187v-1252h641z" />
    <glyph glyph-name="lcommaaccent" unicode="&#x13c;" horiz-adv-x="460" 
d="M176 -100h182v-222q0 -61 -54 -114t-136 -78l-66 152q74 31 74 40v222zM358 0h-180v1389h180v-1389z" />
    <glyph glyph-name="Lcaron" unicode="&#x13d;" horiz-adv-x="1032" 
d="M451 1808h186v-227q0 -63 -54 -117t-137 -82l-69 156q74 27 74 43v227zM930 182v-182h-828v1434h187v-1252h641z" />
    <glyph glyph-name="lcaron" unicode="&#x13e;" horiz-adv-x="690" 
d="M408 1386h180v-221q0 -59 -53 -112t-136 -80l-65 153q74 27 74 39v221zM283 0h-181v1389h181v-1389z" />
    <glyph glyph-name="Lslash" unicode="&#x141;" horiz-adv-x="1187" 
d="M1085 182v-182h-823v342l-33 -31l-127 129l160 160v834h182v-654l230 230l127 -123l-357 -359v-346h641z" />
    <glyph glyph-name="lslash" unicode="&#x142;" horiz-adv-x="882" 
d="M467 0h-178v360l-62 -59l-125 127l187 182v793h178v-615l192 191l121 -123l-313 -317v-539z" />
    <glyph glyph-name="Nacute" unicode="&#x143;" horiz-adv-x="1261" 
d="M872 1706l-411 -190l-72 161l410 193zM1159 0h-153l-719 1063v-1063h-185v1434h156l719 -1063v1063h182v-1434z" />
    <glyph glyph-name="nacute" unicode="&#x144;" horiz-adv-x="999" 
d="M735 1307l-399 -183l-72 156l395 184zM897 0h-178v686q0 80 -47 131t-113 51h-119q-66 0 -112 -48t-47 -124v-696h-179v1042h179v-38q74 39 159 38h119q141 0 239 -97t99 -259v-686z" />
    <glyph glyph-name="Ncommaaccent" unicode="&#x145;" horiz-adv-x="1261" 
d="M483 -102h187v-228q0 -62 -56 -118t-137 -78l-74 157q80 20 80 39v228zM1159 0h-153l-719 1063v-1063h-185v1434h156l719 -1063v1063h182v-1434z" />
    <glyph glyph-name="ncommaaccent" unicode="&#x146;" horiz-adv-x="999" 
d="M432 -100h180v-222q0 -61 -53 -114t-131 -78l-70 152q74 27 74 40v222zM897 0h-178v686q0 80 -47 131t-113 51h-119q-66 0 -112 -48t-47 -124v-696h-179v1042h179v-38q74 39 159 38h119q141 0 239 -97t99 -259v-686z" />
    <glyph glyph-name="Ncaron" unicode="&#x147;" horiz-adv-x="1261" 
d="M696 1532h-129l-334 362h234l166 -174l160 174h233zM1159 0h-153l-719 1063v-1063h-185v1434h156l719 -1063v1063h182v-1434z" />
    <glyph glyph-name="ncaron" unicode="&#x148;" horiz-adv-x="999" 
d="M561 1141h-125l-321 348h227l158 -164l155 164h230zM897 0h-178v686q0 80 -47 131t-113 51h-119q-66 0 -112 -48t-47 -124v-696h-179v1042h179v-38q74 39 159 38h119q141 0 239 -97t99 -259v-686z" />
    <glyph glyph-name="Omacron" unicode="&#x14c;" 
d="M967 1718v-184h-650v184h650zM291 926v-430q0 -138 80 -228t225 -90h90q145 0 227 89t82 229v430q0 328 -309 327h-90q-305 1 -305 -327zM596 1434h90q494 0 494 -508v-430q0 -228 -130 -362t-364 -134h-90q-231 0 -363 135q-131 135 -131 361v430q0 508 494 508z" />
    <glyph glyph-name="omacron" unicode="&#x14d;" horiz-adv-x="1028" 
d="M827 1315v-174h-628v174h628zM457 162h116q74 0 126 58t53 140v287q0 88 -52 154t-127 65h-116q-72 0 -124 -66t-52 -153v-287q0 -84 51 -141t125 -57zM573 -12h-116q-154 0 -254 103t-101 269v287q0 170 100 282t255 111h116q154 0 253 -112t100 -281v-287
q0 -166 -100 -269t-253 -103z" />
    <glyph glyph-name="Ohungarumlaut" unicode="&#x150;" 
d="M1145 1706l-397 -186l-72 157l395 187zM659 1706l-399 -186l-72 157l400 187zM291 926v-430q0 -138 80 -228t225 -90h90q145 0 227 89t82 229v430q0 328 -309 327h-90q-305 1 -305 -327zM596 1434h90q494 0 494 -508v-430q0 -228 -130 -362t-364 -134h-90
q-231 0 -363 135q-131 135 -131 361v430q0 508 494 508z" />
    <glyph glyph-name="ohungarumlaut" unicode="&#x151;" horiz-adv-x="1161" 
d="M1059 1323l-397 -186l-72 157l395 187zM573 1323l-399 -186l-72 157l400 187zM463 162h117q74 0 126 58t52 140v287q0 88 -52 154t-126 65h-117q-72 0 -124 -66t-52 -153v-287q0 -84 51 -141t125 -57zM580 -12h-117q-154 0 -254 103t-100 269v287q0 170 100 282t254 111
h117q154 0 253 -112t99 -281v-287q0 -166 -99 -269t-253 -103z" />
    <glyph glyph-name="OE" unicode="&#x152;" horiz-adv-x="1591" 
d="M602 180v1071q-311 0 -311 -325v-430q1 -140 81 -228t230 -88zM1489 182v-182h-891q-231 0 -364 135q-132 135 -132 361v430q0 508 496 508h891v-183h-703v-415h590v-185h-590v-469h703z" />
    <glyph glyph-name="oe" unicode="&#x153;" horiz-adv-x="1652" 
d="M930 604h442v31q0 233 -225 233q-101 0 -159 -63t-58 -170v-31zM459 162h114q76 0 127 57t52 141v287q0 88 -52 154t-127 65h-114q-74 0 -125 -66t-51 -153v-287q0 -84 50 -141t126 -57zM1520 172v-172h-381q-197 0 -291 113q-106 -125 -275 -125h-114q-154 0 -255 103
t-102 269v287q0 170 100 282t257 111h114q162 0 269 -127q100 129 300 129t304 -104t104 -303v-203h-620q6 -136 53 -198t158 -62h379z" />
    <glyph glyph-name="Racute" unicode="&#x154;" horiz-adv-x="1202" 
d="M821 1720l-409 -192l-74 164l410 192zM285 829h379q88 1 150 63t62 149t-62 149t-150 63h-379v-424zM285 649v-649h-183v1434h562q164 0 280 -116t115 -262q0 -146 -93 -254q-93 -110 -223 -147l357 -655h-211l-348 649h-256z" />
    <glyph glyph-name="racute" unicode="&#x155;" horiz-adv-x="759" 
d="M614 1311l-397 -181l-72 156l396 187zM279 0h-177v1042h177v-49q92 49 231 49h147v-174h-147q-231 0 -231 -237v-631z" />
    <glyph glyph-name="Rcommaaccent" unicode="&#x156;" horiz-adv-x="1202" 
d="M285 829h379q88 1 150 63t62 149t-62 149t-150 63h-379v-424zM285 649v-649h-183v1434h562q164 0 280 -116t115 -262q0 -146 -93 -254q-93 -110 -223 -147l357 -655h-211l-348 649h-256zM481 -102h187v-228q0 -62 -56 -118t-135 -78l-76 157q80 25 80 39v228z" />
    <glyph glyph-name="rcommaaccent" unicode="&#x157;" horiz-adv-x="841" 
d="M178 -102h180v-222q0 -61 -54 -114t-134 -78l-68 151q76 31 76 41v222zM360 0h-176v1042h176v-49q92 49 232 49h147v-174h-147q-231 0 -232 -237v-631z" />
    <glyph glyph-name="Rcaron" unicode="&#x158;" horiz-adv-x="1202" 
d="M645 1534h-131l-330 362h234l162 -170l163 170h234zM285 829h379q88 1 150 63t62 149t-62 149t-150 63h-379v-424zM285 649v-649h-183v1434h562q164 0 280 -116t115 -262q0 -146 -93 -254q-93 -110 -223 -147l357 -655h-211l-348 649h-256z" />
    <glyph glyph-name="rcaron" unicode="&#x159;" horiz-adv-x="972" 
d="M549 1143h-129l-318 348h226l157 -166l158 166h227zM383 0h-178v1042h178v-53q102 53 231 53h148v-174h-148q-231 0 -231 -237v-631z" />
    <glyph glyph-name="Sacute" unicode="&#x15a;" horiz-adv-x="1120" 
d="M801 1710l-410 -192l-76 163l410 193zM102 0v178h463q137 0 205 62t68 202q0 96 -65 136t-185 65q-120 23 -171 37q-50 14 -119 45q-70 31 -106 70q-90 97 -90 258q0 381 461 381h422v-181h-422q-283 0 -282 -200q1 -113 71 -155t266 -76t297 -114q102 -80 103 -266
q0 -234 -113 -338t-340 -104h-463z" />
    <glyph glyph-name="sacute" unicode="&#x15b;" horiz-adv-x="980" 
d="M725 1311l-397 -183l-74 156l397 184zM844 1040v-174h-381q-180 0 -180 -125q0 -53 47 -79t151 -41l41 -7q25 -4 29 -4q328 -43 328 -297q-1 -169 -103 -241t-291 -72h-356v172h356q211 0 211 139q0 47 -47 80t-92 39t-70 10l-43 6q-342 47 -342 293q0 152 102 227
t259 74h381z" />
    <glyph glyph-name="Scedilla" unicode="&#x15e;" horiz-adv-x="1120" 
d="M535 -154v11q-43 10 -70 41t-27 71v31h-336v178h463q137 0 205 62t68 202q0 96 -65 136t-185 65q-120 23 -171 37q-50 14 -119 45q-70 31 -106 70q-90 97 -90 258q0 381 461 381h422v-181h-422q-283 0 -282 -200q1 -113 71 -155t266 -76t297 -114q103 -80 103 -277
q0 -198 -87 -303t-267 -124q51 -33 51 -142q0 -108 -35 -146t-137 -38h-142v168h134z" />
    <glyph glyph-name="scedilla" unicode="&#x15f;" horiz-adv-x="980" 
d="M467 -145v8q-43 6 -70 36t-26 72v29h-242v172h356q211 0 211 139q0 47 -47 80t-92 39t-70 10l-43 6q-342 47 -342 293q0 152 102 227t259 74h381v-174h-381q-180 0 -180 -125q0 -53 47 -79t151 -41l41 -7q25 -4 29 -4q328 -43 328 -297q0 -272 -289 -307q51 -31 51 -137
t-34 -143t-132 -37h-137v166h129z" />
    <glyph glyph-name="Scaron" unicode="&#x160;" horiz-adv-x="1120" 
d="M629 1534h-131l-330 362h233l162 -170l164 170h234zM102 0v178h463q137 0 205 62t68 202q0 96 -65 136t-185 65q-120 23 -171 37q-50 14 -119 45q-70 31 -106 70q-90 97 -90 258q0 381 461 381h422v-181h-422q-283 0 -282 -200q1 -113 71 -155t266 -76t297 -114
q102 -80 103 -266q0 -234 -113 -338t-340 -104h-463z" />
    <glyph glyph-name="scaron" unicode="&#x161;" horiz-adv-x="980" 
d="M844 1040v-174h-381q-180 0 -180 -125q0 -53 47 -79t151 -41l41 -7q25 -4 29 -4q328 -43 328 -297q-1 -169 -103 -241t-291 -72h-356v172h356q211 0 211 139q0 47 -47 80t-92 39t-70 10l-43 6q-342 47 -342 293q0 152 102 227t259 74h381zM553 1141h-123l-326 348h230
l158 -164l155 164h232z" />
    <glyph glyph-name="Tcommaaccent" unicode="&#x162;" horiz-adv-x="1261" 
d="M539 -100h184v-228q0 -66 -55 -120t-140 -76l-65 157q76 18 76 39v228zM723 0h-178v1253h-443v181h1057v-181h-436v-1253z" />
    <glyph glyph-name="tcommaaccent" unicode="&#x163;" horiz-adv-x="837" 
d="M471 -98h182v-221q0 -59 -54 -111t-134 -82l-66 150q72 33 72 43v221zM252 1233h178v-207h305v-178h-305v-496q0 -88 33 -131t112 -43h160v-178h-160q-171 0 -247 88t-76 264v496h-150v178h150v207z" />
    <glyph glyph-name="Tcaron" unicode="&#x164;" horiz-adv-x="1261" 
d="M696 1534h-129l-334 362h234l166 -174l160 174h233zM723 0h-178v1253h-443v181h1057v-181h-436v-1253z" />
    <glyph glyph-name="tcaron" unicode="&#x165;" horiz-adv-x="1142" 
d="M858 1386h182v-221q0 -61 -54 -113t-136 -79l-66 153q74 27 74 39v221zM252 1233h174v-207h307v-178h-307v-496q0 -88 35 -131t114 -43h158v-178h-158q-171 0 -247 87t-76 265v496h-150v178h150v207z" />
    <glyph glyph-name="Umacron" unicode="&#x16a;" horiz-adv-x="1210" 
d="M930 1716v-184h-651v184h651zM928 1434h180v-1006q0 -200 -102 -320t-279 -120h-229q-168 0 -282 116t-114 324v1006h179v-1006q0 -122 62 -190t153 -68h235q94 0 146 71q51 71 51 187v1006z" />
    <glyph glyph-name="umacron" unicode="&#x16b;" horiz-adv-x="999" 
d="M813 1317v-176h-629v176h629zM102 1042h179v-690q0 -78 46 -129t113 -51h119q66 0 113 47t47 123v700h178v-1042h-178v35q-74 -35 -160 -35h-119q-141 0 -239 95t-99 257v690z" />
    <glyph glyph-name="Uring" unicode="&#x16e;" horiz-adv-x="1210" 
d="M549 1724q0 -25 16 -42t40 -17t40 17q17 17 17 42t-18 41q-18 17 -40 17q-23 0 -39 -16t-16 -42zM603 1499q-95 1 -159 65t-65 160q0 96 65 161q66 65 160 65t160 -65t66 -161t-66 -160t-161 -65zM928 1434h180v-1006q0 -200 -102 -320t-279 -120h-229q-168 0 -282 116
t-114 324v1006h179v-1006q0 -122 62 -190t153 -68h235q94 0 146 71q51 71 51 187v1006z" />
    <glyph glyph-name="uring" unicode="&#x16f;" horiz-adv-x="999" 
d="M498 1374q-22 0 -38 -15t-16 -39t16 -40t38 -16q23 0 38 16t15 40t-15 39t-38 15zM279 1320q0 92 63 156q64 64 156 64t155 -63t63 -157t-62 -156q-64 -62 -157 -62t-156 62q-62 63 -62 156zM102 1042h179v-690q0 -78 46 -129t113 -51h119q66 0 113 47t47 123v700h178
v-1042h-178v35q-74 -35 -160 -35h-119q-141 0 -239 95t-99 257v690z" />
    <glyph glyph-name="Uhungarumlaut" unicode="&#x170;" horiz-adv-x="1239" 
d="M1137 1706l-398 -186l-71 157l395 187zM651 1706l-399 -186l-72 157l400 187zM928 1434h180v-1006q0 -200 -102 -320t-279 -120h-229q-168 0 -282 116t-114 324v1006h179v-1006q0 -122 62 -190t153 -68h235q94 0 146 71q51 71 51 187v1006z" />
    <glyph glyph-name="uhungarumlaut" unicode="&#x171;" horiz-adv-x="1161" 
d="M1059 1303l-397 -187l-72 158l395 186zM573 1303l-399 -187l-72 158l400 186zM139 1042h178v-690q1 -78 47 -129t113 -51h119q66 0 113 47t47 123v700h178v-1042h-178v35q-74 -35 -160 -35h-119q-141 0 -239 95t-99 257v690z" />
    <glyph glyph-name="Uogonek" unicode="&#x172;" horiz-adv-x="1210" 
d="M926 -117v-170h-244q-174 0 -174 232v43h-10q-168 0 -282 116t-114 324v1006h179v-1006q0 -122 62 -190t153 -68h235q94 0 146 71q51 71 51 187v1006h180v-1006q0 -188 -91 -306t-251 -132q-27 -37 -86 -41v-66h246z" />
    <glyph glyph-name="uogonek" unicode="&#x173;" horiz-adv-x="1132" 
d="M625 -53q0 41 2 59q-31 -6 -68 -6h-125q-137 0 -234 95t-98 257v690h177v-690q0 -78 46 -129t109 -51h125q66 0 112 47t46 123v700h176v-985q0 -94 -94 -110v-60h231v-163h-239q-166 0 -166 223z" />
    <glyph glyph-name="Ydieresis" unicode="&#x178;" horiz-adv-x="1339" 
d="M924 1534h-183v233h183v-233zM604 1534h-182v233h182v-233zM766 0h-182v645l-482 789h220l354 -592q283 494 344 592h217l-471 -791v-643z" />
    <glyph glyph-name="Zacute" unicode="&#x179;" horiz-adv-x="1146" 
d="M813 1714l-410 -192l-73 164l409 192zM102 1253v181h942v-134l-708 -1120h708v-180h-942v135l705 1118h-705z" />
    <glyph glyph-name="zacute" unicode="&#x17a;" horiz-adv-x="931" 
d="M102 0v133l492 735h-492v174h727v-133l-495 -735h495v-174h-727zM698 1309l-397 -183l-72 158l398 184z" />
    <glyph glyph-name="Zdotaccent" unicode="&#x17b;" horiz-adv-x="1146" 
d="M662 1532h-183v233h183v-233zM102 1253v181h942v-134l-708 -1120h708v-180h-942v135l705 1118h-705z" />
    <glyph glyph-name="zdotaccent" unicode="&#x17c;" horiz-adv-x="931" 
d="M102 0v133l492 735h-492v174h727v-133l-495 -735h495v-174h-727zM553 1141h-178v223h178v-223z" />
    <glyph glyph-name="Zcaron" unicode="&#x17d;" horiz-adv-x="1146" 
d="M637 1534h-131l-330 362h234l161 -172q20 23 164 172h234zM102 1253v181h942v-134l-708 -1120h708v-180h-942v135l705 1118h-705z" />
    <glyph glyph-name="zcaron" unicode="&#x17e;" horiz-adv-x="972" 
d="M102 0v133l492 735h-492v174h727v-133l-495 -735h495v-174h-727zM553 1143h-127l-324 348h230l157 -168l156 168h225z" />
    <glyph glyph-name="florin" unicode="&#x192;" horiz-adv-x="960" 
d="M858 1024v-172h-291v-762q0 -186 -127 -290t-338 -103v172q139 0 213 63t74 185v735h-127v172h133q25 180 141 265t322 104v-181q-127 -10 -189 -55t-85 -133h274z" />
    <glyph glyph-name="Scommaaccent" unicode="&#x218;" horiz-adv-x="1120" 
d="M479 -55h187v-228q0 -63 -56 -118t-139 -78l-72 157q80 23 80 39v228zM102 0v178h463q137 0 205 62t68 202q0 96 -65 136t-185 65q-120 23 -171 37q-50 14 -119 45q-70 31 -106 70q-90 97 -90 258q0 381 461 381h422v-181h-422q-283 0 -282 -200q1 -113 71 -155t266 -76
t297 -114q102 -80 103 -266q0 -234 -113 -338t-340 -104h-463z" />
    <glyph glyph-name="scommaaccent" unicode="&#x219;" horiz-adv-x="980" 
d="M426 -98h180v-221q0 -61 -53 -115t-131 -78l-70 152q74 27 74 41v221zM844 1040v-174h-381q-180 0 -180 -125q0 -53 47 -79t151 -41l41 -7q25 -4 29 -4q328 -43 328 -297q-1 -169 -103 -241t-291 -72h-356v172h356q211 0 211 139q0 47 -47 80t-92 39t-70 10l-43 6
q-342 47 -342 293q0 152 102 227t259 74h381z" />
    <glyph glyph-name="circumflex" unicode="&#x2c6;" horiz-adv-x="972" 
d="M420 1442h129l321 -348h-227l-158 163l-157 -163h-226z" />
    <glyph glyph-name="caron" unicode="&#x2c7;" horiz-adv-x="972" 
d="M549 1038h-129l-318 351h226l157 -168l158 168h227z" />
    <glyph glyph-name="breve" unicode="&#x2d8;" horiz-adv-x="751" 
d="M102 1389h166q0 -47 16 -80t40 -33h106q20 0 36 33q15 33 17 80h166q-1 -115 -65 -197t-154 -82h-108q-94 0 -157 81t-63 198z" />
    <glyph glyph-name="dotaccent" unicode="&#x2d9;" horiz-adv-x="382" 
d="M281 1159h-179v230h179v-230z" />
    <glyph glyph-name="ring" unicode="&#x2da;" horiz-adv-x="645" 
d="M270 1237q0 -23 16 -39t38 -16q24 0 38 16t15 39q-1 23 -17 39t-36 16t-37 -16t-17 -39zM323 1016q-93 0 -157 64t-64 156t64 156t156 64q94 0 157 -63t63 -157t-62 -156q-64 -64 -157 -64z" />
    <glyph glyph-name="ogonek" unicode="&#x2db;" horiz-adv-x="610" 
d="M508 -113v-163h-238q-168 0 -168 223q0 94 32 130t122 36h117q0 -63 -26 -109t-68 -57v-60h229z" />
    <glyph glyph-name="tilde" unicode="&#x2dc;" horiz-adv-x="874" 
d="M563 1016q-92 0 -170 65q-41 33 -65 33t-105 -74l-121 134q146 122 230 122t166 -63q2 -2 9 -6t21 -15t35 -12l88 78l121 -129q-141 -133 -209 -133z" />
    <glyph glyph-name="hungarumlaut" unicode="&#x2dd;" horiz-adv-x="1161" 
d="M1059 1198l-397 -186l-72 157l395 187zM573 1198l-399 -186l-72 157l400 187z" />
    <glyph glyph-name="Delta" unicode="&#x394;" horiz-adv-x="1705" 
 />
    <glyph glyph-name="Delta" unicode="&#x2206;" horiz-adv-x="1705" 
 />
    <glyph glyph-name="Omega" unicode="&#x3a9;" horiz-adv-x="1705" 
 />
    <glyph glyph-name="Omega" unicode="&#x2126;" horiz-adv-x="1705" 
 />
    <glyph glyph-name="pi" unicode="&#x3c0;" horiz-adv-x="382" 
d="M281 0h-179v1024h179v-1024z" />
    <glyph glyph-name="endash" unicode="&#x2013;" horiz-adv-x="1054" 
d="M952 639v-176h-850v176h850z" />
    <glyph glyph-name="emdash" unicode="&#x2014;" horiz-adv-x="1298" 
d="M1196 639v-176h-1094v176h1094z" />
    <glyph glyph-name="quoteleft" unicode="&#x2018;" horiz-adv-x="460" 
d="M285 987h-183v219q0 60 56 112t133 79l67 -148q-74 -35 -73 -43v-219z" />
    <glyph glyph-name="quoteright" unicode="&#x2019;" horiz-adv-x="460" 
d="M176 1386h182v-221q0 -61 -54 -113t-138 -79l-64 151l7 2q68 29 67 39v221z" />
    <glyph glyph-name="quotesinglbase" unicode="&#x201a;" horiz-adv-x="460" 
d="M176 285h182v-222q0 -61 -55 -114t-137 -78l-64 154q74 27 74 38v222z" />
    <glyph glyph-name="quotedblleft" unicode="&#x201c;" horiz-adv-x="757" 
d="M582 987h-183v219q1 60 55 112t132 79l69 -148q-74 -27 -73 -43v-219zM283 987h-181v219q0 60 54 112t133 79l69 -148q-76 -33 -75 -43v-219z" />
    <glyph glyph-name="quotedblright" unicode="&#x201d;" horiz-adv-x="757" 
d="M176 1397h182v-219q0 -60 -54 -112t-132 -79l-70 148q74 27 74 43v219zM475 1397h180v-219q0 -60 -54 -112t-132 -79l-70 148q76 33 76 43v219z" />
    <glyph glyph-name="quotedblbase" unicode="&#x201e;" horiz-adv-x="757" 
d="M176 285h182v-219q0 -60 -54 -112t-132 -79l-70 148q74 27 74 43v219zM475 285h180v-219q0 -60 -54 -112t-132 -79l-70 148q76 33 76 43v219z" />
    <glyph glyph-name="dagger" unicode="&#x2020;" horiz-adv-x="897" 
d="M795 1047v-181h-256v-975h-179v975h-258v181h258v354h179v-354h256z" />
    <glyph glyph-name="daggerdbl" unicode="&#x2021;" horiz-adv-x="1058" 
d="M956 561v-178h-335v-383h-181v383h-338v178h338v303h-338v183h338v356h181v-356h335v-183h-335v-303h335z" />
    <glyph glyph-name="bullet" unicode="&#x2022;" horiz-adv-x="698" 
d="M102 625q0 102 72 176q72 73 172 73t175 -74t75 -175q0 -100 -74 -172t-176 -72t-173 71t-71 173z" />
    <glyph glyph-name="ellipsis" unicode="&#x2026;" horiz-adv-x="901" 
d="M799 0h-185v260h185v-260zM543 0h-187v260h187v-260zM287 0h-185v260h185v-260z" />
    <glyph glyph-name="perthousand" unicode="&#x2030;" horiz-adv-x="1884" 
d="M326 0h-224l1010 1389h223zM1460 304q0 -132 74 -132q39 0 54 33q16 33 16 101t-16 100q-16 31 -54 30q-74 0 -74 -132zM1532 608q129 0 189 -70q61 -70 61 -231q0 -159 -62 -233t-188 -74q-127 0 -187 74q-61 74 -61 234t59 230q60 70 189 70zM911 304q0 -132 72 -132
t72 132t-72 132t-72 -132zM982 608q128 0 189 -70t61 -231q0 -159 -62 -233t-189 -74t-187 74t-60 234t60 230t188 70zM545 1086q0 134 -73 133q-73 0 -73 -133t72 -134q74 0 74 134zM471 1393q129 0 189 -72q60 -73 60 -231t-60 -233q-62 -75 -189 -75t-189 75t-62 234
t60 231q62 72 191 71z" />
    <glyph glyph-name="guilsinglleft" unicode="&#x2039;" horiz-adv-x="577" 
d="M301 545l174 -137v-218l-373 287v135l373 285v-215z" />
    <glyph glyph-name="guilsinglright" unicode="&#x203a;" horiz-adv-x="577" 
d="M475 612v-135l-373 -287v218l172 135l-172 139v215z" />
    <glyph glyph-name="fraction" unicode="&#x2044;" horiz-adv-x="1021" 
d="M297 0h-195l629 1403h189z" />
    <glyph glyph-name="Euro" unicode="&#x20ac;" horiz-adv-x="1210" 
d="M102 461v178h117v74h-117v180h117q10 237 132 345t345 108h412v-177h-412q-276 0 -299 -276h572v-180h-572v-74h572v-178h-572q4 -131 82 -208t217 -77h412v-176h-412q-225 0 -349 123t-128 338h-117z" />
    <glyph glyph-name="trademark" unicode="&#x2122;" horiz-adv-x="1699" 
d="M512 551h-174v678h-236v174h646v-174h-236v-678zM1597 551h-176v453l-139 -234h-125l-139 236v-455h-174v852h149l228 -393l229 393h147v-852z" />
    <glyph glyph-name="partialdiff" unicode="&#x2202;" horiz-adv-x="1705" 
 />
    <glyph glyph-name="product" unicode="&#x220f;" horiz-adv-x="1705" 
 />
    <glyph glyph-name="summation" unicode="&#x2211;" horiz-adv-x="1705" 
 />
    <glyph glyph-name="minus" unicode="&#x2212;" horiz-adv-x="1206" 
d="M1104 717v-176h-1002v176h1002z" />
    <glyph glyph-name="radical" unicode="&#x221a;" horiz-adv-x="1705" 
 />
    <glyph glyph-name="infinity" unicode="&#x221e;" horiz-adv-x="1705" 
 />
    <glyph glyph-name="integral" unicode="&#x222b;" horiz-adv-x="1705" 
 />
    <glyph glyph-name="approxequal" unicode="&#x2248;" horiz-adv-x="1705" 
 />
    <glyph glyph-name="notequal" unicode="&#x2260;" horiz-adv-x="1206" 
d="M1104 604v-178h-504l-192 -426h-191l191 426h-306v178h383q31 63 58 129h-441v174h521l223 496h188l-221 -496h291v-174h-367l-63 -129h430z" />
    <glyph glyph-name="lessequal" unicode="&#x2264;" horiz-adv-x="956" 
d="M102 754v129l752 485v-201l-541 -348l541 -354v-201zM854 178v-178h-752v178h752z" />
    <glyph glyph-name="greaterequal" unicode="&#x2265;" horiz-adv-x="956" 
d="M854 178v-178h-752v178h752zM854 883v-129l-752 -490v201l541 354l-541 348v201z" />
    <glyph glyph-name="lozenge" unicode="&#x25ca;" horiz-adv-x="1705" 
 />
    <glyph glyph-name="fi" unicode="&#xfb01;" horiz-adv-x="1081" 
d="M979 1174h-178v215h178v-215zM979 0h-178v1024h178v-1024zM702 1024v-172h-292v-852h-177v852h-131v172h138q23 180 139 265q117 85 323 104v-181q-231 -26 -276 -188h276z" />
    <glyph glyph-name="fl" unicode="&#xfb02;" horiz-adv-x="1087" 
d="M985 0h-176v1386h176v-1386zM698 1024v-172h-290v-852h-179v852h-127v172h134q23 180 139 265q117 85 323 104v-181q-231 -26 -276 -188h276z" />
    <glyph glyph-name="apple" horiz-adv-x="0" 
 />
    <glyph glyph-name="Imacron" horiz-adv-x="851" 
d="M750 1718v-184h-648v184h648zM516 0h-186v1434h186v-1434z" />
    </font>
</defs>
</svg>
